<?xml version="1.0"?>
<svg xmlns="http://www.w3.org/2000/svg" xmlns:xlink="http://www.w3.org/1999/xlink" version="1.1" viewBox="0 0 192 192" width="48px" height="48px"><g fill="none" fill-rule="nonzero" stroke="none" stroke-width="1" stroke-linecap="butt" stroke-linejoin="miter" stroke-miterlimit="10" stroke-dasharray="" stroke-dashoffset="0" font-family="none" font-weight="none" font-size="none" text-anchor="none" style="mix-blend-mode: normal"><path d="M0,192v-192h192v192z" fill="none"/><g id="Layer_1"><path d="M91.612,13.144c2.716,-1.524 6.06,-1.524 8.772,0c13.42,7.532 53.804,30.204 67.228,37.736c2.716,1.52 4.388,4.336 4.388,7.384c0,15.064 0,60.404 0,75.468c0,3.048 -1.672,5.864 -4.388,7.388c-13.42,7.532 -53.804,30.204 -67.228,37.736c-2.716,1.524 -6.06,1.524 -8.772,0c-13.42,-7.532 -53.804,-30.204 -67.228,-37.736c-2.712,-1.524 -4.384,-4.336 -4.384,-7.384c0,-15.064 0,-60.404 0,-75.468c0,-3.048 1.672,-5.864 4.388,-7.388c13.416,-7.532 53.808,-30.204 67.224,-37.736z" fill="#005bd1"/><path d="M21.216,137.616c-1.064,-1.424 -1.216,-2.776 -1.216,-4.596c0,-14.976 0,-60.056 0,-75.036c0,-3.032 1.668,-5.832 4.376,-7.344c13.372,-7.488 53.62,-30.028 66.992,-37.52c2.708,-1.516 6.376,-1.484 9.084,0.032c13.372,7.488 53.484,29.836 66.856,37.324c1.08,0.608 1.904,1.34 2.64,2.304z" fill="#005bd1"/><path d="M96,40c-30.92,0 -56,25.08 -56,56c0,30.92 25.08,56 56,56c30.92,0 56,-25.08 56,-56c0,-30.92 -25.08,-56 -56,-56zM96,124c-15.44,0 -28,-12.56 -28,-28c0,-15.44 12.56,-28 28,-28c15.44,0 28,12.56 28,28c0,15.44 -12.56,28 -28,28z" fill="#dbdbdb"/><path d="M169.94,52.82c2.064,1.932 2.024,4.844 2.024,7.136c0,15.18 -0.128,58.356 0.036,73.536c0.016,1.584 -0.508,3.252 -1.292,4.508l-76.336,-42z" fill="#005bd1"/><rect x="34" y="20" transform="scale(4,4)" width="1" height="8" fill="#dbdbdb"/><rect x="37" y="20" transform="scale(4,4)" width="1" height="8" fill="#dbdbdb"/><rect x="32" y="25" transform="scale(4,4)" width="8" height="1" fill="#dbdbdb"/><rect x="32" y="22" transform="scale(4,4)" width="8" height="1" fill="#dbdbdb"/></g></g></svg>
