<svg xmlns="http://www.w3.org/2000/svg" x="0px" y="0px"
width="50" height="50"
viewBox="0 0 192 192"
style=" fill:#000000;"><g fill="none" fill-rule="nonzero" stroke="none" stroke-width="1" stroke-linecap="butt" stroke-linejoin="miter" stroke-miterlimit="10" stroke-dasharray="" stroke-dashoffset="0" font-family="none" font-weight="none" font-size="none" text-anchor="none" style="mix-blend-mode: normal"><path d="M0,192v-192h192v192z" fill="none"></path><g fill="#005bd1"><path d="M45.8775,30.72c-0.16345,0.0071 -0.32629,0.02463 -0.4875,0.0525l-42.24,7.6875c-1.20101,0.2188 -2.22645,0.99558 -2.76231,2.09246c-0.53586,1.09688 -0.5183,2.38319 0.04731,3.46504l46.08,88.32c0.83965,1.60541 2.68708,2.40565 4.4325,1.92l41.4675,-11.52l23.295,40.455c0.93436,1.62611 2.90656,2.33953 4.665,1.6875l65.3025,-24.135c1.10767,-0.40953 1.96532,-1.30592 2.32557,-2.43058c0.36024,-1.12466 0.18301,-2.35253 -0.48057,-3.32942l-22.0575,-32.535l23.7225,-6.5925c1.19714,-0.33152 2.15999,-1.22159 2.58438,-2.38904c0.42439,-1.16745 0.2579,-2.46806 -0.44688,-3.49096l-21.1125,-30.6225c-0.91986,-1.33126 -2.57548,-1.94312 -4.14,-1.53l-28.8075,7.5825c-1.20411,0.3166 -2.18002,1.19728 -2.61816,2.36267c-0.43814,1.1654 -0.28414,2.47088 0.41316,3.50233l18.06,26.64l-57.015,15.8325l-46.7025,-81.105c-0.72042,-1.25199 -2.08242,-1.99385 -3.525,-1.92zM44.1,38.8125l44.3625,77.055l-36.5775,10.1625l-42.225,-80.9475zM165.42,65.9325l16.515,23.97l-21.0075,5.8425l-16.47,-24.2925zM157.6575,104.6175l20.76,30.6225l-57.6675,21.315l-20.6925,-35.94z"></path></g></g></svg>