<?xml version="1.0" standalone="no"?><!-- Generator: Gravit.io --><svg xmlns="http://www.w3.org/2000/svg" xmlns:xlink="http://www.w3.org/1999/xlink" style="isolation:isolate" viewBox="1621.588 874 83.174 79.489" width="83.174" height="79.489"><g id="Group"><path d=" M 1630.781 892.826 L 1630.889 892.826 L 1630.889 892.826 C 1636.69 892.826 1640.302 888.643 1640.302 883.413 C 1640.194 878.069 1636.69 874 1630.999 874 C 1625.308 874 1621.588 878.069 1621.588 883.413 C 1621.588 888.643 1625.198 892.826 1630.781 892.826 Z " fill="rgb(0,91,209)"/><rect x="1621.588" y="899.102" width="18.714" height="54.387" transform="matrix(1,0,0,1,0,0)" fill="rgb(0,91,209)"/><path d=" M 1704.762 918.974 C 1704.762 907.998 1695.918 899.102 1685.008 899.102 C 1678.66 899.102 1673.027 902.126 1669.413 906.808 L 1669.413 899.102 L 1650.699 899.102 L 1650.699 953.489 L 1669.413 953.489 L 1669.413 922.112 L 1669.413 922.112 C 1669.413 917.491 1673.137 913.744 1677.73 913.744 C 1682.323 913.744 1686.047 917.491 1686.047 922.112 L 1686.047 953.489 L 1704.762 953.489 C 1704.762 953.489 1704.762 922.017 1704.762 918.974 Z " fill="rgb(0,91,209)"/></g></svg>