<?xml version="1.0" encoding="UTF-8" standalone="no"?>
<!-- Created with Inkscape (http://www.inkscape.org/) -->

<svg
   xmlns:dc="http://purl.org/dc/elements/1.1/"
   xmlns:cc="http://creativecommons.org/ns#"
   xmlns:rdf="http://www.w3.org/1999/02/22-rdf-syntax-ns#"
   xmlns:svg="http://www.w3.org/2000/svg"
   xmlns="http://www.w3.org/2000/svg"
   xmlns:sodipodi="http://sodipodi.sourceforge.net/DTD/sodipodi-0.dtd"
   xmlns:inkscape="http://www.inkscape.org/namespaces/inkscape"
   width="311.7775mm"
   height="98.699203mm"
   viewBox="0 0 311.7775 98.699203"
   version="1.1"
   id="svg932"
   inkscape:version="0.92.3 (2405546, 2018-03-11)"
   sodipodi:docname="MERN + GraphQL.svg">
  <defs
     id="defs926" />
  <sodipodi:namedview
     id="base"
     pagecolor="#ffffff"
     bordercolor="#666666"
     borderopacity="1.0"
     inkscape:pageopacity="0.0"
     inkscape:pageshadow="2"
     inkscape:zoom="0.35"
     inkscape:cx="137.75723"
     inkscape:cy="35.08961"
     inkscape:document-units="mm"
     inkscape:current-layer="layer1"
     showgrid="false"
     fit-margin-top="0"
     fit-margin-left="0"
     fit-margin-right="0"
     fit-margin-bottom="0"
     showborder="false"
     inkscape:window-width="1366"
     inkscape:window-height="732"
     inkscape:window-x="0"
     inkscape:window-y="0"
     inkscape:window-maximized="1" />
  <metadata
     id="metadata929">
    <rdf:RDF>
      <cc:Work
         rdf:about="">
        <dc:format>image/svg+xml</dc:format>
        <dc:type
           rdf:resource="http://purl.org/dc/dcmitype/StillImage" />
        <dc:title></dc:title>
      </cc:Work>
    </rdf:RDF>
  </metadata>
  <g
     inkscape:label="Layer 1"
     inkscape:groupmode="layer"
     id="layer1"
     transform="translate(71.978029,-59.418258)">
    <path
       inkscape:connector-curvature="0"
       style="fill:#005bd1;fill-opacity:1;stroke-width:0.26458332"
       d="m -56.530202,59.418258 c -0.120809,0 -0.301882,0.37338 -0.402042,0.829415 -0.12845,0.584809 -1.000864,1.617822 -2.960542,3.50573 -3.55427,3.424078 -5.758718,6.369897 -7.744749,10.34923 -3.020499,6.052026 -4.325101,11.579146 -4.340302,18.388542 -0.0098,4.377293 0.352579,6.769814 1.565278,10.335285 1.892922,5.56541 5.967248,11.48786 10.647929,15.47762 2.34805,2.00144 2.580148,2.47624 3.028757,6.20168 0.166481,1.38258 0.414991,2.66237 0.552421,2.84427 0.13744,0.1819 0.298066,0.33073 0.356568,0.33073 0.279008,0 0.617141,-1.51927 0.889349,-3.99304 0.286062,-2.59972 0.788427,-4.20905 1.313617,-4.20905 0.49395,0 5.169649,-4.69172 6.624918,-6.64765 2.94817,-3.96246 5.356603,-9.64552 6.097301,-14.38672 0.460492,-2.947617 0.4063,-8.498417 -0.111619,-11.434948 -0.236612,-1.341517 -0.857068,-3.722767 -1.378728,-5.291667 -2.05036,-6.166405 -4.88591,-10.979308 -9.240779,-15.684844 -1.546151,-1.670632 -2.991046,-3.542797 -3.624586,-4.696354 -0.579429,-1.055026 -1.15198,-1.918229 -1.272791,-1.918229 z m 65.0906007,6.021334 c -7.57797901,0 -13.182127,2.262346 -18.6975667,7.548907 -3.619569,3.469349 -5.93512,7.430426 -7.301878,12.491217 -0.827511,3.062605 -0.82568,9.391359 0.0031,12.442137 1.324568,4.875817 3.262826,8.323717 6.666775,11.858707 4.5048087,4.67825 10.00517369,7.44593 16.0693047,8.08633 2.934168,0.30993 3.359261,0.3112 6.1706813,0.0164 6.48553,-0.67972 11.792927,-3.29907 16.418637,-8.10287 3.464481,-3.59783 5.449021,-7.1655 6.674531,-11.997715 0.81163,-3.200374 0.80449,-9.252373 -0.015,-12.309316 -1.33196,-4.968743 -3.5663,-8.836925 -7.127223,-12.338791 C 22.019816,67.822218 16.178814,65.43946 8.5604037,65.43946 Z m 81.9061143,1.66452 c -0.39866,-0.0095 -0.86317,0.0127 -1.42834,0.05683 -2.64702,0.206772 -6.17553,2.027714 -9.7932,5.053965 -0.63223,0.528849 -1.18677,0.961682 -1.23197,0.961682 -0.0452,0 -0.59922,-0.432832 -1.23145,-0.961682 -7.09351,-5.933863 -13.03038,-6.735524 -15.38045,-2.077401 -0.99263,1.967521 -1.20272,6.451547 -0.55345,11.808591 l 0.14882,1.228329 -1.41335,0.535886 c -13.52484,5.124609 -14.05709,12.784853 -1.2516,18.013898 l 2.48357,1.01441 -0.0429,1.29243 c -0.0236,0.71089 -0.12526,2.7807 -0.22583,4.59971 -0.31099,5.62493 0.78828,8.56763 3.7083,9.92809 2.5026,1.16594 7.20101,-0.49004 11.66957,-4.11295 1.07321,-0.87011 2.05149,-1.58181 2.17351,-1.58181 0.12202,0 1.10544,0.70668 2.1854,1.57046 3.71207,2.96902 7.95169,4.7679 10.37921,4.40386 4.1967,-0.62934 6.08828,-5.84028 4.79764,-13.21882 -0.22604,-1.29241 -0.35952,-2.48396 -0.29662,-2.64793 0.0629,-0.16393 0.75426,-0.52377 1.53634,-0.79941 4.775427,-1.6832 8.839117,-4.601502 9.875877,-7.092606 1.43622,-3.450882 -0.76443,-6.892792 -6.2053,-9.704837 -1.091397,-0.564065 -2.741387,-1.297914 -3.666957,-1.630892 l -1.6831,-0.605128 0.15968,-1.210786 c 0.68306,-5.189194 0.72695,-6.02287 0.42684,-8.084768 -0.39495,-2.713434 -1.12293,-4.394358 -2.40502,-5.552652 -0.93739,-0.846852 -1.53927,-1.158214 -2.73523,-1.186471 z m 128.372517,2.416387 c -0.699,0.0042 -1.39999,0.147506 -1.9668,0.436669 -1.39997,0.714216 -2.02981,1.70852 -2.19832,3.471095 l -0.13745,1.442297 -4.62143,2.611199 -4.62089,2.610697 -1.09659,-0.547264 c -2.79945,-1.398112 -5.90209,0.07678 -6.34275,3.015323 -0.2431,1.620812 0.60494,3.374311 2.0226,4.183724 l 1.02889,0.587561 0.003,5.351092 0.003,5.351092 -0.77981,0.403093 c -1.04703,0.541443 -2.04547,1.906803 -2.26652,3.099033 -0.24321,1.31154 0.21756,2.58025 1.3286,3.65713 0.78849,0.76425 1.14157,0.90577 2.5001,1.00409 1.27894,0.0925 1.76583,0.006 2.54249,-0.45217 l 0.96065,-0.5669 4.27365,2.42052 c 2.35043,1.33114 4.48149,2.60223 4.73615,2.82516 0.29919,0.26189 0.46405,0.78867 0.46405,1.48879 0,1.32024 0.75002,2.62382 1.91514,3.33417 h -0.003 c 1.21981,0.74372 3.29121,0.71205 4.43693,-0.0677 1.36991,-0.93236 1.92326,-1.86939 2.05724,-3.48506 l 0.12041,-1.45675 4.52531,-2.56108 4.5253,-2.56109 0.98546,0.5674 c 2.17057,1.24923 5.14036,0.45532 6.1345,-1.63968 0.95919,-2.02133 0.28218,-4.11866 -1.75699,-5.444619 l -0.9834,-0.639763 v -5.229645 -5.229675 l 1.09762,-0.745173 c 2.77177,-1.881425 2.76312,-5.280527 -0.0185,-7.1551 -1.16758,-0.786845 -2.90351,-0.799545 -4.27003,-0.03154 l -1.01441,0.569991 -4.18114,-2.333704 c -2.29978,-1.283547 -4.38949,-2.46163 -4.64417,-2.61792 -0.30054,-0.184467 -0.46303,-0.613912 -0.46303,-1.223195 0,-1.177581 -0.96774,-3.105944 -1.89857,-3.783753 -0.6034,-0.439341 -1.49907,-0.66384 -2.39778,-0.658337 z M 89.978173,69.77733 c 0.58538,0.02328 1.07487,0.176028 1.44229,0.466117 1.15933,0.915273 1.6676,2.874275 1.6185,6.240436 -0.0234,1.600729 -0.19936,3.505729 -0.39067,4.233333 -0.31535,1.199383 -0.42192,1.326965 -1.14154,1.364271 -0.43655,0.02276 -1.56766,-0.112368 -2.51354,-0.29972 -0.94589,-0.187378 -2.26605,-0.418385 -2.93367,-0.513662 -1.13694,-0.162322 -1.32977,-0.317288 -3.04271,-2.4443 -1.00587,-1.249018 -2.05172,-2.542884 -2.3244,-2.87528 -0.45303,-0.552265 -0.46058,-0.654632 -0.0873,-1.187529 0.22466,-0.320755 1.22147,-1.181841 2.21537,-1.91307 2.78164,-2.046473 5.40156,-3.140763 7.15771,-3.070596 z m -23.70502,0.01641 c 1.78128,-0.03527 4.3127,1.115007 7.30808,3.343963 2.22994,1.659387 2.5962,2.276819 1.76114,2.969842 -0.23195,0.19251 -1.25588,1.394513 -2.27532,2.67118 -1.59184,1.993477 -1.98991,2.34233 -2.81946,2.470124 -0.53126,0.08183 -1.91833,0.323215 -3.0825,0.536389 -2.39645,0.438865 -3.21799,0.481066 -3.40703,0.175181 -0.39681,-0.642064 -0.73747,-4.144566 -0.64337,-6.611461 0.12582,-3.298402 0.69356,-4.779037 2.04845,-5.340244 0.32762,-0.135705 0.69895,-0.206852 1.11001,-0.214974 z m 96.302137,4.853966 c -0.12452,-0.0093 -0.21946,0.0098 -0.29146,0.0553 -0.32624,0.205555 -0.41064,1.136438 -0.46974,5.182605 -0.0396,2.712826 -0.17363,4.932522 -0.29817,4.932522 -0.12454,0 -0.64224,-0.173726 -1.15032,-0.386027 -1.06096,-0.443283 -0.85875,-0.521362 -5.43274,2.103252 -1.75366,1.006237 -2.76759,1.753499 -2.85409,2.104258 -0.0738,0.299217 -0.0996,2.326798 -0.0579,4.505669 l 0.0754,3.9615 3.57187,2.053643 c 1.96453,1.129322 3.72328,2.055732 3.90829,2.057742 0.51272,0.007 6.74325,-3.656222 7.27036,-4.274157 0.42222,-0.494929 0.46302,-1.375833 0.46302,-9.988021 0,-7.155629 -0.0802,-9.546722 -0.33073,-9.865042 -0.1819,-0.231061 -1.22312,-0.919533 -2.31407,-1.529609 -1.07737,-0.602483 -1.71624,-0.885957 -2.08979,-0.913633 z m 59.92243,2.549181 c 0.36091,0.03408 1.56638,0.691542 4.80644,2.513542 l 4.0349,2.268617 v 1.092941 c 0,1.460261 0.74221,2.77569 2.07738,3.681941 l 1.09762,0.745173 v 5.009515 c 0,2.755265 -0.0963,5.009515 -0.21394,5.009515 -0.11766,0 -1.76668,-2.649141 -3.6649,-5.886979 -1.89826,-3.237839 -4.48652,-7.647782 -5.7516,-9.799903 -1.26508,-2.152147 -2.37469,-4.107629 -2.46599,-4.34549 -0.0734,-0.191214 -0.084,-0.30435 0.0801,-0.288872 z m -7.55354,0.01349 c 0.15356,-0.0127 0.2553,0.05808 0.2553,0.193278 0,0.173143 -1.62727,3.073294 -3.61633,6.444562 -1.98906,3.371294 -4.61785,7.825978 -5.84203,9.89965 -1.22417,2.073672 -2.26298,3.770313 -2.30838,3.770313 -0.29993,0 -0.4041,-1.399064 -0.4041,-5.44203 v -4.605417 l 1.06815,-0.67437 c 1.36703,-0.862965 2.10579,-2.077323 2.10579,-3.466967 0,-0.600657 0.14989,-1.212903 0.33179,-1.360647 0.43315,-0.35179 7.69041,-4.505801 8.24082,-4.717018 0.0608,-0.02328 0.11779,-0.03715 0.16899,-0.04135 z M 78.179923,77.482713 c 0.0953,0.0032 0.18362,0.03066 0.26613,0.08165 0.54689,0.337979 2.33753,2.818686 2.1978,3.044772 -0.0816,0.132106 -1.21666,0.240295 -2.52232,0.240295 -2.87783,0 -3.09961,-0.253947 -1.70791,-1.952334 0.80671,-0.984462 1.35343,-1.428301 1.7663,-1.414383 z m 141.262707,0.379835 c 0.24659,0.0026 0.43492,0.02408 0.50538,0.06768 0.14091,0.08713 0.83817,1.166654 1.54926,2.398818 0.7111,1.232165 3.45422,5.90894 6.09627,10.393177 2.64205,4.484212 4.80385,8.27585 4.80385,8.425842 0,0.149966 -0.2463,0.618622 -0.54726,1.041265 l -0.54674,0.76793 h -12.52378 -12.52379 l -0.5643,-0.95705 -0.56484,-0.957052 3.7574,-6.385137 c 2.06656,-3.511815 4.84648,-8.230606 6.17792,-10.486178 l 2.42104,-4.101042 1.10432,-0.149357 c 0.30369,-0.04098 0.60865,-0.06051 0.85527,-0.0589 z M 11.292015,81.647306 c 1.488012,-0.0048 1.386531,-0.10033 4.283459,4.030768 1.09701,1.564349 2.145602,2.844271 2.33009,2.844271 0.335582,0 1.013063,-0.833622 3.605983,-4.435395 1.53245,-2.128679 1.953432,-2.445623 3.237013,-2.439644 1.878208,0.0087 1.811329,0.207195 -1.598869,4.741333 -1.766782,2.349077 -3.212725,4.368509 -3.212725,4.488101 0,0.265033 0.583819,1.123712 3.436999,5.053939 4.28449,5.901871 4.020042,5.481161 3.556373,5.659091 -0.63812,0.2449 -2.470452,0.19373 -2.987932,-0.0832 -0.251669,-0.13467 -1.636085,-1.984241 -3.076816,-4.110327 -1.633588,-2.410672 -2.764464,-3.837067 -3.004984,-3.789944 -0.21213,0.04154 -1.559737,1.800965 -2.994649,3.909827 -1.43491,2.108861 -2.815897,3.916174 -3.068545,4.016294 -0.72041,0.28546 -2.6587133,0.24847 -2.8458213,-0.0543 -0.09293,-0.15036 0.550365,-1.25169 1.4298853,-2.447394 1.905542,-2.590562 3.574444,-4.893549 4.773353,-6.587199 l 0.876432,-1.237642 -0.617016,-0.879025 c -0.339201,-0.483261 -1.851181,-2.532274 -3.360002,-4.553717 -3.0008803,-4.02045 -3.0188883,-4.118848 -0.762228,-4.12586 z m -12.6509063,0.159173 c 2.848409,0.03162 5.192289,1.292225 6.626468,3.564123 0.91839,1.454838 1.704806,4.002008 1.704806,5.520584 v 1.327071 l -7.20989601,0.07027 -7.20989599,0.07027 -0.08372,0.870743 c -0.12415,1.291379 0.641282,3.29229 1.611273,4.21267 1.39105,1.3199 2.499072,1.747493 4.557861,1.756489 2.28325099,0.01005 3.78361,-0.682546 4.797639,-2.214853 0.635701,-0.960623 0.798113,-1.053174 1.852084,-1.053174 1.036431,0 1.155485,0.06398 1.155485,0.621665 0,0.627433 -1.079547,2.304362 -2.018998,3.136238 -0.279911,0.247862 -1.160566,0.746755 -1.956985,1.108475 -3.646091,1.65589 -8.464524,0.71096 -10.795725,-2.117199 -2.0257187,-2.457529 -2.7428487,-7.220849 -1.617988,-10.745073 0.522229,-1.636157 0.856017,-2.168128 2.218467,-3.536738 1.95117,-1.959954 3.578572,-2.622577 6.369122,-2.591568 z m 80.3232643,1.730137 c 0.8285,0.0056 1.58829,0.03027 2.16162,0.07803 l 2.31666,0.193278 1.1591,1.7916 c 1.77427,2.74275 3.8623,6.738593 3.8623,7.390765 0,0.660532 -1.50336,3.545019 -3.63544,6.975289 l -1.43867,2.315102 h -5.25446 -5.25498 l -0.65422,-0.85989 c -0.89238,-1.17288 -3.32746,-5.334665 -4.12843,-7.055382 l -0.65526,-1.40716 1.38855,-2.68097 c 1.74052,-3.360632 3.51072,-6.184927 4.00079,-6.383073 0.5428,-0.219446 3.64693,-0.374518 6.13244,-0.357585 z m 44.497017,0.487813 c -0.62281,0 -6.48279,3.23543 -7.25072,4.003384 -0.4472,0.447172 -0.49454,0.96303 -0.49454,5.406892 0,2.880122 0.11329,5.123895 0.27389,5.423959 0.15063,0.28149 0.39257,0.511598 0.53743,0.511598 0.30067,0 3.94675,-2.023216 4.34805,-2.412762 0.14553,-0.141287 0.32408,-1.514951 0.39688,-3.052022 l 0.13229,-2.794661 0.95033,-0.549831 c 0.85252,-0.493342 1.03902,-0.513106 1.80868,-0.19431 1.49934,0.621057 1.60662,0.867357 1.60662,3.689694 0,2.133653 0.081,2.656073 0.46302,2.986908 0.92739,0.803116 4.05728,2.3749 4.43797,2.228797 0.32731,-0.125598 0.39067,-1.032166 0.39067,-5.568632 v -5.418799 l -0.85989,-0.637699 c -1.51369,-1.122521 -6.16552,-3.622516 -6.74068,-3.622516 z m 54.20496,0 c -0.46976,0 -6.48002,3.376533 -7.20059,4.045241 -0.46093,0.427725 -0.51005,0.863997 -0.51005,4.531492 0,3.44588 0.066,4.113107 0.43615,4.421452 0.23979,0.199708 1.81736,1.154509 3.50573,2.121826 1.68836,0.96729 3.32093,1.77104 3.6282,1.78594 0.60722,0.0296 4.32455,-1.912411 4.65398,-2.431365 0.1114,-0.175551 0.16894,-0.426587 0.12764,-0.557609 -0.0413,-0.130995 -1.55705,-1.088972 -3.36878,-2.128546 l -3.29438,-1.889813 -0.0796,-1.365277 c -0.079,-1.356069 -0.0724,-1.368927 0.99219,-1.912038 l 1.07177,-0.546735 1.04335,0.532263 c 0.93126,0.475112 1.05168,0.64979 1.12448,1.63195 0.12338,1.665605 0.58865,1.773872 2.5988,0.603064 2.55548,-1.48844 2.90629,-1.86854 2.90629,-3.148647 0,-0.601663 -0.14883,-1.28352 -0.33073,-1.515163 -0.42223,-0.537633 -6.78668,-4.178035 -7.30447,-4.178035 z M 141.69749,84.2203 c -0.53243,-0.04011 -6.3769,3.066415 -7.18457,3.81889 -0.49726,0.463206 -0.54054,0.817007 -0.54054,4.411609 0,2.710048 0.10138,4.045982 0.33073,4.357873 0.1819,0.247332 1.75948,1.279366 3.50573,2.293911 1.74625,1.014547 3.33767,1.847027 3.53622,1.850017 0.46805,0.007 7.01622,-3.580392 7.4166,-4.062807 0.2098,-0.252862 0.28316,-1.674389 0.23306,-4.536149 l -0.0734,-4.167716 -3.38067,-1.965749 c -1.85953,-1.080981 -3.5892,-1.980803 -3.84318,-1.999879 z M -1.7273453,84.2367 c -1.991497,0.02566 -4.015502,0.97782 -4.920112,2.552276 -0.68131,1.185837 -1.062051,2.631732 -0.803569,3.049958 0.10572,0.171027 2.214446,0.270775 5.716448,0.270775 6.165659,0 6.042099,0.03918 5.55625,-1.758024 -0.358151,-1.324822 -1.658647,-2.882874 -2.96157701,-3.547586 -0.783635,-0.399786 -1.682213,-0.57912 -2.58743999,-0.567399 z m 89.5232183,0.07234 c 0.31581,-0.0042 0.87341,0.09181 1.83916,0.285776 0.83794,0.168275 1.5869,0.471197 1.6645,0.673338 0.0776,0.202116 -0.0894,1.098921 -0.37104,1.99263 -0.28162,0.893737 -0.64667,1.669759 -0.8108,1.724449 -0.3081,0.102711 -2.71198,-3.761925 -2.71198,-4.359937 0,-0.207089 0.0744,-0.31197 0.39016,-0.316256 z m -19.56263,0.07287 c 0.19476,0 0.33011,0.01984 0.37362,0.06615 0.12439,0.132424 -0.32088,1.20097 -1.00614,2.414323 -0.67602,1.197001 -1.3711,2.178817 -1.54461,2.182812 -0.1735,0.0034 -0.58646,-0.834337 -0.91725,-1.861396 -0.49237,-1.528763 -0.5362,-1.90709 -0.24392,-2.087722 0.52671,-0.325516 2.49432,-0.712893 3.3383,-0.714163 z m -6.79493,1.65055 c 0.0895,0 0.1639,0.0082 0.22169,0.02892 0.17372,0.06252 0.4545,0.55253 0.62373,1.08884 0.16923,0.536284 0.71638,2.083938 1.21595,3.439054 l 0.90847,2.463933 -1.09451,2.960026 c -0.60201,1.62806 -1.18464,3.138619 -1.29449,3.356901 -0.29738,0.59092 -1.03769,0.561181 -2.65927,-0.107474 -3.84084,-1.583796 -6.48783,-3.428974 -7.26261,-5.061717 -0.66958,-1.41105 -0.24831,-2.664487 1.37666,-4.094851 1.91641,-1.686877 6.62185,-4.057941 7.96438,-4.073632 z m 33.51113,0.07803 c 0.63415,-0.03072 1.59911,0.462386 3.39824,1.311037 4.615677,2.177203 6.616107,4.509638 5.721097,6.670384 -0.65919,1.591416 -3.5984,3.680645 -7.183017,5.105638 -1.96055,0.779383 -2.5631,0.861351 -2.73059,0.371025 -0.0621,-0.181901 -0.61374,-1.699948 -1.22628,-3.373437 -0.61254,-1.67349 -1.09572,-3.221302 -1.07332,-3.439584 0.0224,-0.218281 0.57166,-1.825625 1.22008,-3.571875 0.79034,-2.128414 1.05845,-3.033712 1.87379,-3.073188 z m -16.75867,1.469681 c -1.33783,-0.04231 -2.73313,0.440769 -3.92276,1.630389 -1.79197,1.791944 -2.10354,4.067334 -0.88418,6.457474 0.51728,1.013962 1.5176,1.893596 2.68356,2.360586 0.97033,0.388646 3.05336,0.325252 4.13359,-0.126101 1.34123,-0.560387 2.15024,-1.364297 2.73885,-2.721266 1.71459,-3.952769 -1.33015,-7.493026 -4.74906,-7.601082 z m 81.279787,2.896447 c 0.39589,0.0045 0.8097,0.105463 1.20923,0.319378 0.84795,0.453999 0.94975,0.628121 1.02165,1.74252 0.0756,1.171284 0.0259,1.274524 -0.92139,1.918229 -1.16384,0.790839 -1.04922,0.777213 -2.06913,0.244422 -1.08914,-0.568934 -1.45521,-1.10199 -1.45521,-2.118201 0,-1.267328 1.0272,-2.120133 2.21485,-2.106348 z m 18.15807,0.426852 c -0.20047,0 -0.40093,0.09096 -0.7276,0.272865 -0.98891,0.550624 -1.14274,1.88042 -0.28681,2.479939 0.3316,0.232278 0.78813,0.422196 1.01441,0.422196 0.22627,0 0.68281,-0.189918 1.01441,-0.422196 0.85593,-0.599519 0.7021,-1.929315 -0.28681,-2.479939 -0.32666,-0.181901 -0.52713,-0.272865 -0.7276,-0.272865 z M 66.073173,96.98888 c 0.40114,0 2.8722,4.18661 2.66701,4.51858 -0.17667,0.28586 -0.0904,0.29099 -2.04431,-0.12867 -0.84022,-0.18044 -1.65718,-0.45725 -1.8154,-0.61547 -0.36256,-0.36256 0.71559,-3.77444 1.1927,-3.77444 z m 24.02489,0.0042 c 0.29371,0.01746 0.5253,0.531151 0.86041,1.51466 0.5365,1.57464 0.52494,2.10878 -0.0527,2.41792 -0.89146,0.4771 -3.2658,0.78946 -3.39721,0.44701 -0.0663,-0.17274 0.43334,-1.29193 1.11053,-2.487184 0.73331,-1.294342 1.1461,-1.912144 1.47898,-1.892406 z m 60.040257,2.641706 c -0.75725,0 -7.10933,3.625904 -7.44244,4.248334 -0.14107,0.26358 -0.25683,2.21345 -0.25683,4.33306 0,4.32054 0.02,4.37186 2.09548,5.43067 2.30457,1.17571 3.72535,0.4395 3.72535,-1.9296 0,-1.71286 0.1784,-1.94503 0.84336,-1.09966 1.14392,1.45425 4.43701,1.50997 5.62756,0.0951 1.37411,-1.63304 0.53098,-2.85158 -2.26343,-3.27062 -1.50422,-0.22556 -1.94913,-0.48975 -1.74046,-1.03352 0.27395,-0.7139 1.94122,-0.5479 2.69803,0.26871 0.96067,1.03659 1.7929,0.5102 1.28519,-0.81288 -0.26391,-0.68773 -1.55575,-1.2025 -3.0179,-1.2025 -1.14641,0 -1.47593,0.11993 -2.12959,0.77361 -1.50484,1.50482 -0.77668,2.73339 1.95337,3.29539 2.0149,0.41479 2.16716,0.499 1.94459,1.07902 -0.11143,0.29033 -0.52747,0.40823 -1.44023,0.40823 -1.0429,0 -1.39274,-0.12504 -1.865,-0.66818 -0.47893,-0.55081 -0.67429,-0.61868 -1.11001,-0.3855 -0.67313,0.36026 -0.75193,0.14917 -0.84542,-2.25361 -0.0643,-1.65167 -0.12962,-1.85209 -0.60152,-1.85209 -0.49974,0 -0.53315,0.20087 -0.60254,3.61167 -0.0868,4.26606 -0.22089,4.52668 -1.89085,3.67472 l -1.07848,-0.55036 v -3.66953 -3.67006 l 2.77089,-1.61645 c 1.52398,-0.889 3.02668,-1.61645 3.33933,-1.61645 0.5463,0 4.90666,2.33008 5.86217,3.13264 0.39652,0.33304 0.46302,0.87474 0.46302,3.76979 v 3.38016 l -0.7276,0.50487 c -0.40018,0.2776 -1.83911,1.12623 -3.19774,1.88569 -2.38849,1.33514 -2.49175,1.36639 -3.12436,0.95186 -0.71898,-0.47111 -1.71322,-0.44299 -1.87637,0.0527 -0.0572,0.17384 0.35024,0.61286 0.90538,0.97618 0.55513,0.36333 1.28261,0.66744 1.61643,0.67644 0.5839,0.0151 6.31275,-3.0547 7.26416,-3.89226 0.40402,-0.35565 0.46302,-0.93694 0.46302,-4.5589 0,-3.62297 -0.0589,-4.20288 -0.46302,-4.55631 -0.92911,-0.81262 -6.61974,-3.91036 -7.18354,-3.91036 z m 68.76636,3.565684 c 5.9586,0.003 11.91852,0.0949 11.94448,0.27077 0.0307,0.20786 -6.8929,4.35796 -8.46151,5.07204 -0.19375,0.0882 -0.80492,-0.094 -1.35856,-0.40513 -1.27979,-0.7193 -3.00971,-0.73406 -4.31085,-0.0367 -0.54301,0.29107 -1.01783,0.52808 -1.05471,0.52607 -0.36716,-0.018 -8.7176,-4.98295 -8.69561,-5.17022 0.0209,-0.17584 5.97815,-0.2603 11.93676,-0.25683 z m -59.13543,0.006 c -0.40361,0 -0.54864,0.20402 -0.61184,0.8599 -0.0745,0.7729 -0.0129,0.85989 0.61184,0.85989 0.62468,0 0.68687,-0.0869 0.61237,-0.85989 -0.0632,-0.65588 -0.20876,-0.8599 -0.61237,-0.8599 z m -67.994807,0.44495 c 0.5268,0.0593 0.90098,1.09283 1.18546,3.24218 0.49931,3.7724 0.0119,7.16362 -1.2206,8.49352 -1.58763,1.7131 -6.24668,0.10073 -10.54251,-3.64834 -1.21973,-1.0645 -1.38442,-0.64035 1.74098,-4.47416 l 2.01383,-2.47065 3.14554,-0.49816 c 1.72994,-0.27411 3.27851,-0.54911 3.44165,-0.61082 0.0817,-0.0309 0.16039,-0.0421 0.23565,-0.0336 z m -27.23297,0.17671 c 0.55159,0 1.51117,0.1278 3.12798,0.39947 l 3.41478,0.57362 2.33991,2.76056 c 1.28698,1.5181 2.33991,2.96687 2.33991,3.21942 0,0.60216 -3.90052,3.52716 -5.95313,4.46434 -1.96511,0.89723 -3.73277,1.17462 -4.63021,0.72657 -1.15637,-0.57734 -1.95043,-2.63416 -2.06964,-5.35987 -0.1152,-2.63396 0.32355,-6.17316 0.82476,-6.65285 0.0907,-0.0868 0.27469,-0.13171 0.60564,-0.13126 z m 13.47153,1.36271 c 1.52797,0 2.77813,0.10346 2.77813,0.22998 0,0.1265 -0.48608,0.84087 -1.08056,1.5875 -0.59635,0.74898 -1.29908,1.35752 -1.56734,1.35752 -0.42814,0 -2.90835,-2.56259 -2.90835,-3.00497 0,-0.0934 1.25015,-0.17003 2.77812,-0.17003 z m 152.859917,27.52392 c -0.51496,-0.0161 -1.14184,0.1687 -1.53324,0.53639 l -0.57824,0.54311 -2.12858,-0.54311 c -3.75226,-0.95806 -7.54107,-0.60508 -10.43966,0.97256 -1.69355,0.92172 -4.19447,3.61711 -5.06635,5.46012 -1.48606,3.14114 -1.50744,8.25506 -0.0481,11.44273 1.33418,2.91428 4.5313,5.4393 7.99279,6.31227 2.43205,0.61333 6.83096,0.38529 9.54517,-0.49506 1.19472,-0.38751 2.53417,-1.00907 2.97656,-1.38131 l 0.80409,-0.67697 v -4.02714 c 0,-4.41497 0.12229,-4.83256 1.45521,-4.97128 0.71504,-0.0744 0.79375,-0.17452 0.79375,-1.00873 v -0.92604 h -5.02708 -5.02709 v 0.92604 c 0,0.89752 0.0339,0.92877 1.10379,1.00666 0.60714,0.0442 1.2618,0.27041 1.45471,0.50282 0.3846,0.46355 0.66945,5.91854 0.37102,7.10758 -0.23201,0.92443 -1.70201,1.50445 -3.85556,1.52135 -2.03525,0.0159 -3.44942,-0.40327 -4.8886,-1.44848 -2.26494,-1.64489 -3.31348,-4.18248 -3.31348,-8.02071 0,-6.32209 2.71915,-9.90873 7.52356,-9.92394 2.98336,-0.01 4.95901,1.30095 6.31899,4.19094 0.31769,0.67509 0.6963,1.31472 0.84182,1.42164 0.46776,0.34364 1.39404,0.21537 1.55959,-0.21601 0.0883,-0.23019 0.16021,-2.00631 0.16021,-3.94705 0,-1.94072 -0.0719,-3.71687 -0.16021,-3.94703 -0.10152,-0.26458 -0.43455,-0.39876 -0.8351,-0.41135 z m -274.881406,0.5049 c -1.933091,0.003 -3.862491,0.12012 -4.073652,0.34776 -0.168709,0.18191 -1.758649,3.65697 -3.533119,7.72253 -1.774468,4.06556 -3.33746,7.42791 -3.473688,7.47191 -0.136221,0.044 -1.789991,-3.31737 -3.674711,-7.46985 -1.88472,-4.15245 -3.567544,-7.66685 -3.739825,-7.80983 -0.183369,-0.15219 -1.943872,-0.22956 -4.246253,-0.18656 l -3.933092,0.0734 v 1.05627 c 0,1.03624 0.02278,1.06156 1.190625,1.32291 0.654839,0.14656 1.339453,0.36288 1.521354,0.48059 0.478359,0.30962 0.478359,17.88258 0,18.50121 -0.181901,0.23524 -0.866515,0.52961 -1.521354,0.65423 -1.17303,0.22318 -1.190625,0.24194 -1.190625,1.2764 v 1.05006 l 4.796605,0.0718 c 4.700101,0.0706 4.798989,0.0607 4.94337,-0.49144 0.26712,-1.02148 -0.223954,-1.74744 -1.320335,-1.95233 -0.55621,-0.10396 -1.160137,-0.31168 -1.342036,-0.46199 -0.24593,-0.20323 -0.330729,-1.73749 -0.330729,-5.98257 0,-3.20078 0.09993,-5.59848 0.227375,-5.45757 0.125021,0.13825 1.643068,3.39114 3.373438,7.22903 2.213692,4.90987 3.302889,7.03961 3.675229,7.18508 0.317471,0.12403 0.735457,0.0749 1.044898,-0.12248 0.300059,-0.19137 1.88042,-3.36039 3.778581,-7.57679 1.79456,-3.98624 3.378213,-7.36298 3.519164,-7.50393 0.16528,-0.16534 0.256316,1.91736 0.256316,5.86735 0,6.02771 -0.0092,6.12955 -0.588079,6.535 -0.323419,0.22653 -0.975871,0.41185 -1.450041,0.41185 -0.691439,0 -0.893747,0.12708 -1.022676,0.64079 -0.0884,0.35229 -0.118895,0.85831 -0.0677,1.12448 0.08613,0.44802 0.509736,0.4889 5.705594,0.55502 l 5.612577,0.0713 0.177253,-0.70745 c 0.250158,-0.99676 -0.175639,-1.5109 -1.461927,-1.76527 -0.833842,-0.16489 -1.173741,-0.38492 -1.362191,-0.88056 -0.28479,-0.74896 -0.298704,-16.80123 -0.0155,-17.81805 0.145942,-0.52398 0.416288,-0.69591 1.343589,-0.85421 0.63844,-0.10898 1.256607,-0.34977 1.374077,-0.53485 0.315258,-0.49668 0.266988,-1.37631 -0.0956,-1.73892 -0.226955,-0.22696 -2.163816,-0.33745 -4.096909,-0.33433 z m 203.472336,0.0579 c -0.46543,0.003 -0.98995,0.009 -1.5813,0.0185 l -4.4633,0.0729 v 1.0361 c 0,1.00793 0.0324,1.04376 1.18494,1.32292 0.83061,0.20122 1.28384,0.48448 1.51723,0.94827 0.41102,0.81677 0.4896,11.20799 0.0837,11.06858 -0.14122,-0.0485 -2.76874,-3.24353 -5.83944,-7.09983 -3.07068,-3.8563 -5.74911,-7.10449 -5.95209,-7.21815 -0.20297,-0.11369 -1.83194,-0.1732 -3.61942,-0.13229 l -3.24993,0.0744 v 1.04748 c 0,0.96766 0.065,1.06093 0.85318,1.22214 0.46929,0.096 1.15391,0.3716 1.52136,0.61238 l 0.66817,0.4377 v 8.8067 c 0,6.99588 -0.0736,8.90778 -0.35863,9.29762 -0.21201,0.28993 -0.83453,0.55436 -1.52136,0.64596 -1.15451,0.15398 -1.16272,0.16277 -1.16272,1.21335 v 1.05833 l 4.69016,0.0724 4.68963,0.0723 0.17777,-0.70847 c 0.24543,-0.97785 -0.17929,-1.52459 -1.33118,-1.71204 -0.53726,-0.0874 -1.12,-0.3012 -1.2945,-0.47543 -0.37495,-0.37439 -0.61764,-13.52063 -0.2496,-13.52063 0.12416,0 3.22625,3.75046 6.89364,8.33437 6.41769,8.02156 6.70242,8.33438 7.57628,8.33438 h 0.90796 l 0.0884,-10.51719 c 0.0488,-5.78445 0.18781,-10.72401 0.30851,-10.97711 0.1207,-0.25308 0.71322,-0.59212 1.31672,-0.75343 1.37759,-0.36828 1.75855,-0.6789 1.75855,-1.43248 0,-0.96872 -0.35469,-1.16692 -3.6127,-1.1498 z M 0.09321569,133.49519 v 1.16271 c 0,1.22616 0.299427,1.47669 1.77663501,1.48569 0.32231,0.003 0.709255,0.23376 0.859896,0.51522 0.172752,0.32279 0.273886,3.70023 0.273886,9.14569 0,5.4455 -0.101134,8.82291 -0.273886,9.1457 -0.173559,0.3243 -0.55326,0.5116 -1.03663,0.5116 -1.30683801,0 -1.59990101,0.23915 -1.59990101,1.30691 0,0.54226 0.07973,1.06571 0.176734,1.16271 0.305538,0.30551 19.88076531,0.20828 20.07112531,-0.0997 0.326181,-0.52779 1.890178,-6.73688 1.779736,-7.06573 -0.06635,-0.19754 -0.579464,-0.33073 -1.273824,-0.33073 -0.9838,0 -1.230754,0.11182 -1.607653,0.72761 -2.065859,3.37518 -2.581492,3.63447 -7.227983,3.63646 H 8.6921747 l -0.07286,-3.91086 -0.07338,-3.91139 3.1062723,0.0749 c 3.43445,0.0825 3.336509,0.0282 3.965649,2.19107 0.212151,0.72935 0.327276,0.79375 1.415417,0.79375 h 1.183908 l 0.07235,-4.82865 c 0.0716,-4.79359 0.07639,-4.82878 0.661459,-4.83277 1.193969,-0.008 1.272608,-0.24524 1.193207,-3.58894 l -0.07493,-3.15381 -9.988021,-0.0692 z m 68.39478731,0.13848 v 0.92604 c 0,0.87842 0.0512,0.92999 0.98858,1.00769 1.79492,0.1487 1.78955,0.12222 1.78955,10.14461 0,9.67351 -0.011,9.74979 -1.45211,9.74979 -1.12158,0 -1.45831,0.27609 -1.45831,1.19684 0,0.48162 0.14883,0.93734 0.33073,1.01232 0.1819,0.075 2.59292,0.11435 5.35781,0.0879 l 5.02709,-0.0481 0.0822,-0.9865 c 0.0803,-0.96922 0.0623,-0.98967 -1.01027,-1.16118 -1.80441,-0.28852 -1.87431,-0.4668 -1.7911,-4.5594 0.0599,-2.94444 0.14416,-3.61167 0.45681,-3.61167 0.36129,0 2.09814,2.0991 6.38256,7.71374 1.01652,1.33213 2.03331,2.49299 2.25929,2.57969 0.53867,0.20667 5.49422,0.20415 6.03426,-0.003 0.49445,-0.18973 0.56125,-1.44328 0.10129,-1.90325 -0.17463,-0.1746 -0.56482,-0.31729 -0.86713,-0.31729 -0.30232,0 -0.81195,-0.18339 -1.13223,-0.40773 -0.71255,-0.49908 -6.67918,-7.90233 -6.67918,-8.28735 0,-0.15174 0.50601,-0.50083 1.12448,-0.77566 2.58191,-1.14736 3.88737,-3.02802 3.89537,-5.61051 0.009,-3.02586 -1.0923,-4.71927 -3.93827,-6.05388 l -1.47846,-0.693 h -7.01146 z m 9.38806,2.54196 c 1.38754,0.0279 3.07623,0.55586 3.776,1.22629 1.85953,1.78154 1.38273,5.00925 -0.91312,6.18051 -1.4064,0.71749 -4.10623,1.00475 -4.3155,0.45939 -0.0798,-0.20883 -0.11253,-2.04078 -0.0718,-4.07106 l 0.0739,-3.69126 0.87799,-0.0842 c 0.18215,-0.0175 0.37435,-0.0236 0.57257,-0.0196 z m -69.3161803,0.50075 3.3734373,0.0265 c 1.855391,0.0145 3.671086,0.10903 4.034896,0.20981 0.753031,0.20863 1.368169,1.29554 1.420069,2.50992 0.03069,0.71819 -0.06105,0.83706 -0.706419,0.91107 -0.755078,0.0866 -1.051277,0.51464 -1.364258,1.97456 -0.09895,0.46151 -0.408479,0.83235 -0.828889,0.99218 -0.36921,0.14037 -1.854316,0.25527 -3.300055,0.25527 H 8.5598827 v -3.43958 z m 178.8583273,2.38125 c -1.20076,0 -1.55516,0.68723 -1.64176,3.18275 l -0.078,2.24121 -2.7342,0.13229 c -2.30889,0.11171 -2.79246,0.21225 -3.10885,0.64595 -0.50442,0.69154 -0.47131,1.30106 0.0982,1.81645 0.35407,0.32041 1.13333,0.44653 3.10886,0.50384 l 2.63601,0.0765 0.13229,2.42673 c 0.0728,1.33462 0.19179,2.47762 0.26459,2.54043 0.0728,0.0627 0.37042,0.24722 0.66145,0.40978 v 0 c 0.65609,0.36677 0.51659,0.36664 1.31672,0.003 0.79719,-0.36322 0.90827,-0.73998 0.99787,-3.3941 l 0.0667,-1.98437 2.63654,-0.0765 c 1.97554,-0.0573 2.75479,-0.18344 3.10885,-0.50385 0.56952,-0.51538 0.60214,-1.1249 0.0977,-1.81644 -0.31639,-0.43371 -0.79997,-0.53425 -3.10885,-0.64596 l -2.7342,-0.13229 -0.0775,-2.2412 c -0.0866,-2.49553 -0.44152,-3.18276 -1.64228,-3.18276 z"
       id="path894" />
  </g>
</svg>
