<?xml version="1.0" encoding="UTF-8" standalone="no"?>
<!-- Created with Inkscape (http://www.inkscape.org/) -->

<svg
   xmlns:dc="http://purl.org/dc/elements/1.1/"
   xmlns:cc="http://creativecommons.org/ns#"
   xmlns:rdf="http://www.w3.org/1999/02/22-rdf-syntax-ns#"
   xmlns:svg="http://www.w3.org/2000/svg"
   xmlns="http://www.w3.org/2000/svg"
   xmlns:sodipodi="http://sodipodi.sourceforge.net/DTD/sodipodi-0.dtd"
   xmlns:inkscape="http://www.inkscape.org/namespaces/inkscape"
   viewBox="0 0 20.637501 34.050549"
   version="1.1"
   id="svg2337"
   inkscape:version="0.92.3 (2405546, 2018-03-11)"
   sodipodi:docname="bulb.svg">
  <defs
     id="defs2331" />
  <sodipodi:namedview
     id="base"
     pagecolor="#ffffff"
     bordercolor="#666666"
     borderopacity="1.0"
     inkscape:pageopacity="0.0"
     inkscape:pageshadow="2"
     inkscape:zoom="0.35"
     inkscape:cx="-555.2857"
     inkscape:cy="152.91892"
     inkscape:document-units="mm"
     inkscape:current-layer="layer1"
     showgrid="false"
     fit-margin-top="0"
     fit-margin-left="0"
     fit-margin-right="0"
     fit-margin-bottom="0"
     showborder="false"
     inkscape:window-width="1366"
     inkscape:window-height="732"
     inkscape:window-x="0"
     inkscape:window-y="0"
     inkscape:window-maximized="1" />
  <metadata
     id="metadata2334">
    <rdf:RDF>
      <cc:Work
         rdf:about="">
        <dc:format>image/svg+xml</dc:format>
        <dc:type
           rdf:resource="http://purl.org/dc/dcmitype/StillImage" />
        <dc:title></dc:title>
      </cc:Work>
    </rdf:RDF>
  </metadata>
  <g
     inkscape:label="Layer 1"
     inkscape:groupmode="layer"
     id="layer1"
     transform="translate(-111.38958,-155.24258)">
    <path
       style="isolation:isolate;fill:#006fff;stroke-width:0.26458332"
       inkscape:connector-curvature="0"
       id="path1651"
       d="m 117.71074,185.29687 c 0,-2.20583 1.79123,-3.99653 3.99759,-3.99653 2.20636,0 3.99786,1.7907 3.99786,3.99653 0,2.20556 -1.7915,3.99626 -3.99786,3.99626 -2.20636,0 -3.99759,-1.7907 -3.99759,-3.99626 z" />
    <path
       inkscape:connector-curvature="0"
       id="path1625"
       style="isolation:isolate;fill:#006fff;stroke:none;stroke-width:0.26458332;stroke-miterlimit:10"
       d="m 117.74752,170.68472 h 7.92163 c 0.0204,0 0.037,0.0167 0.037,0.0368 v 7.91925 c 0,0.0204 -0.0167,0.0368 -0.037,0.0368 h -7.92163 c -0.0204,0 -0.0368,-0.0164 -0.0368,-0.0368 v -7.91925 c 0,-0.0201 0.0164,-0.0368 0.0368,-0.0368 z" />
    <path
       style="isolation:isolate;fill:#006fff;fill-rule:evenodd;stroke-width:0.26458332"
       inkscape:connector-curvature="0"
       id="path1649"
       d="m 111.38958,165.69362 c 0,-5.76791 4.62386,-10.45104 10.31875,-10.45104 5.69516,0 10.31875,4.68313 10.31875,10.45104 0,5.76818 -4.62359,10.45104 -10.31875,10.45104 -5.69489,0 -10.31875,-4.68286 -10.31875,-10.45104 z m 6.32116,0 c 0,-2.20556 1.79123,-3.99626 3.99759,-3.99626 2.20636,0 3.99786,1.7907 3.99786,3.99626 0,2.20583 -1.7915,3.99653 -3.99786,3.99653 -2.20636,0 -3.99759,-1.7907 -3.99759,-3.99653 z" />
  </g>
</svg>
