<?xml version="1.0" encoding="UTF-8" standalone="no"?>
<!-- Created with Inkscape (http://www.inkscape.org/) -->

<svg
   xmlns:dc="http://purl.org/dc/elements/1.1/"
   xmlns:cc="http://creativecommons.org/ns#"
   xmlns:rdf="http://www.w3.org/1999/02/22-rdf-syntax-ns#"
   xmlns:svg="http://www.w3.org/2000/svg"
   xmlns="http://www.w3.org/2000/svg"
   xmlns:sodipodi="http://sodipodi.sourceforge.net/DTD/sodipodi-0.dtd"
   xmlns:inkscape="http://www.inkscape.org/namespaces/inkscape"
   viewBox="0 0 15.99087 31.970934"
   version="1.1"
   id="svg1159"
   class="bracketIcon"
   sodipodi:docname="closeBracket.svg"
   inkscape:version="0.92.3 (2405546, 2018-03-11)">
  <defs
     id="defs1153" />
  <sodipodi:namedview
     id="base"
     pagecolor="#ffffff"
     bordercolor="#666666"
     borderopacity="1.0"
     inkscape:pageopacity="0.0"
     inkscape:pageshadow="2"
     inkscape:zoom="0.35"
     inkscape:cx="-604.52879"
     inkscape:cy="-259.58249"
     inkscape:document-units="mm"
     inkscape:current-layer="layer1"
     showgrid="false"
     fit-margin-top="0"
     fit-margin-left="0"
     fit-margin-right="0"
     fit-margin-bottom="0"
     inkscape:window-width="1366"
     inkscape:window-height="732"
     inkscape:window-x="0"
     inkscape:window-y="0"
     inkscape:window-maximized="1" />
  <metadata
     id="metadata1156">
    <rdf:RDF>
      <cc:Work
         rdf:about="">
        <dc:format>image/svg+xml</dc:format>
        <dc:type
           rdf:resource="http://purl.org/dc/dcmitype/StillImage" />
        <dc:title></dc:title>
      </cc:Work>
    </rdf:RDF>
  </metadata>
  <g
     inkscape:label="Layer 1"
     inkscape:groupmode="layer"
     id="layer1"
     transform="translate(-124.41848,-48.181199)">
    <path
       style="isolation:isolate;fill:#005bd1;stroke-width:0.26458332"
       inkscape:connector-curvature="0"
       id="path1005"
       d="m 132.37711,48.1812 h -7.92163 c -0.0204,0 -0.037,0.0164 -0.037,0.03678 v 7.918979 c 0,0.02037 0.0167,0.03704 0.037,0.03704 h 7.92163 c 0.0201,0 0.0368,-0.01667 0.0368,-0.03704 V 48.21798 c -10e-6,-0.02037 -0.0167,-0.03678 -0.0368,-0.03678 z m 0,23.978394 h -7.92163 c -0.0204,0 -0.037,0.0164 -0.037,0.03678 v 7.918979 c 0,0.02037 0.0167,0.03678 0.037,0.03678 h 7.92163 c 0.0201,0 0.0368,-0.0164 0.0368,-0.03678 v -7.918979 c 0,-0.02037 -0.0167,-0.03678 -0.0368,-0.03678 z m 0.073,-15.985596 h -0.0362 v 7.992798 7.992798 7.992533 h 7.99544 v -7.992533 -7.992798 -7.992798 h -0.0365 c 0.0201,0 0.0363,-0.01693 0.0363,-0.03704 v -7.918979 c -1e-5,-0.02037 -0.0164,-0.03678 -0.0368,-0.03678 h -7.92163 c -0.0204,0 -0.0368,0.0164 -0.0368,0.03678 v 7.918979 c 0,0.02011 0.0161,0.03651 0.0362,0.03704 z" />
  </g>
</svg>
