<?xml version="1.0" encoding="UTF-8" standalone="no"?>
<!-- Created with Inkscape (http://www.inkscape.org/) -->

<svg
   xmlns:dc="http://purl.org/dc/elements/1.1/"
   xmlns:cc="http://creativecommons.org/ns#"
   xmlns:rdf="http://www.w3.org/1999/02/22-rdf-syntax-ns#"
   xmlns:svg="http://www.w3.org/2000/svg"
   xmlns="http://www.w3.org/2000/svg"
   xmlns:sodipodi="http://sodipodi.sourceforge.net/DTD/sodipodi-0.dtd"
   xmlns:inkscape="http://www.inkscape.org/namespaces/inkscape"
   width="30.576756mm"
   height="34.32106mm"
   viewBox="0 0 30.576756 34.321061"
   version="1.1"
   id="svg2337"
   inkscape:version="0.92.3 (2405546, 2018-03-11)"
   sodipodi:docname="lens.svg">
  <defs
     id="defs2331" />
  <sodipodi:namedview
     id="base"
     pagecolor="#ffffff"
     bordercolor="#666666"
     borderopacity="1.0"
     inkscape:pageopacity="0.0"
     inkscape:pageshadow="2"
     inkscape:zoom="0.35"
     inkscape:cx="-607.73073"
     inkscape:cy="423.85968"
     inkscape:document-units="mm"
     inkscape:current-layer="layer1"
     showgrid="false"
     fit-margin-top="0"
     fit-margin-left="0"
     fit-margin-right="0"
     fit-margin-bottom="0"
     showborder="false"
     inkscape:window-width="1366"
     inkscape:window-height="732"
     inkscape:window-x="0"
     inkscape:window-y="0"
     inkscape:window-maximized="1" />
  <metadata
     id="metadata2334">
    <rdf:RDF>
      <cc:Work
         rdf:about="">
        <dc:format>image/svg+xml</dc:format>
        <dc:type
           rdf:resource="http://purl.org/dc/dcmitype/StillImage" />
        <dc:title></dc:title>
      </cc:Work>
    </rdf:RDF>
  </metadata>
  <g
     inkscape:label="Layer 1"
     inkscape:groupmode="layer"
     id="layer1"
     transform="translate(-125.26566,-226.65848)">
    <path
       inkscape:connector-curvature="0"
       id="path1587"
       style="isolation:isolate;fill:#006fff;stroke:none;stroke-width:0.26458332;stroke-miterlimit:10"
       d="m 125.2737,256.01219 8.00641,-10.13885 c 0.0127,-0.016 0.0357,-0.0186 0.0518,-0.006 l 6.2146,4.90774 c 0.016,0.0127 0.0187,0.0359 0.006,0.0518 l -8.00625,10.13865 c -0.0127,0.016 -0.0359,0.0187 -0.0518,0.006 l -6.21479,-4.90751 c -0.016,-0.0127 -0.0187,-0.0359 -0.006,-0.0518 z" />
    <path
       style="isolation:isolate;fill:#006fff;stroke-width:0.26458332"
       inkscape:connector-curvature="0"
       id="path1589"
       d="m 138.78675,245.39011 c 4.53277,3.61165 11.14104,2.85732 14.76013,-1.68477 3.61907,-4.54208 2.87849,-11.15192 -1.65428,-14.76358 -2.17668,-1.73436 -4.95473,-2.53141 -7.72271,-2.21553 -2.76834,0.31592 -5.29985,1.71873 -7.03784,3.89996 -1.73798,2.18124 -2.54014,4.96232 -2.22964,7.73108 0.31013,2.76882 1.70748,5.29869 3.88434,7.03284 z m 4.06227,-5.09831 c -0.82917,-0.66067 -1.36211,-1.6239 -1.48124,-2.67722 -0.1195,-1.05329 0.18491,-2.11084 0.84541,-2.93979 1.37525,-1.726 3.89003,-2.00985 5.61664,-0.6341 1.72661,1.37575 2.01158,3.8904 0.63653,5.61655 -0.6605,0.82896 -1.62356,1.3617 -2.67693,1.48046 -1.05333,0.11913 -2.11104,-0.18507 -2.94041,-0.8459 z" />
  </g>
</svg>
