<?xml version="1.0" encoding="UTF-8" standalone="no"?>
<!-- Created with Inkscape (http://www.inkscape.org/) -->

<svg
   xmlns:dc="http://purl.org/dc/elements/1.1/"
   xmlns:cc="http://creativecommons.org/ns#"
   xmlns:rdf="http://www.w3.org/1999/02/22-rdf-syntax-ns#"
   xmlns:svg="http://www.w3.org/2000/svg"
   xmlns="http://www.w3.org/2000/svg"
   xmlns:sodipodi="http://sodipodi.sourceforge.net/DTD/sodipodi-0.dtd"
   xmlns:inkscape="http://www.inkscape.org/namespaces/inkscape"
   width="120mm"
   height="120mm"
   viewBox="0 0 120 120"
   version="1.1"
   id="svg977"
   inkscape:version="0.92.3 (2405546, 2018-03-11)"
   sodipodi:docname="logo.svg"
   inkscape:export-filename="/home/josedan/Documents/jd-website/src/logo.png"
   inkscape:export-xdpi="90"
   inkscape:export-ydpi="90">
  <defs
     id="defs971" />
  <sodipodi:namedview
     id="base"
     pagecolor="#201f1f"
     bordercolor="#666666"
     borderopacity="1.0"
     inkscape:pageopacity="1"
     inkscape:pageshadow="2"
     inkscape:zoom="0.35"
     inkscape:cx="477.9803"
     inkscape:cy="527.42518"
     inkscape:document-units="mm"
     inkscape:current-layer="layer1"
     showgrid="false"
     fit-margin-top="0"
     fit-margin-left="0"
     fit-margin-right="0"
     fit-margin-bottom="0"
     inkscape:window-width="1366"
     inkscape:window-height="732"
     inkscape:window-x="0"
     inkscape:window-y="0"
     inkscape:window-maximized="1" />
  <metadata
     id="metadata974">
    <rdf:RDF>
      <cc:Work
         rdf:about="">
        <dc:format>image/svg+xml</dc:format>
        <dc:type
           rdf:resource="http://purl.org/dc/dcmitype/StillImage" />
        <dc:title></dc:title>
      </cc:Work>
    </rdf:RDF>
  </metadata>
  <g
     inkscape:label="Layer 1"
     inkscape:groupmode="layer"
     id="layer1"
     transform="translate(64.739822,-243.13213)">
    <g
       id="g1586"
       transform="matrix(0.41043795,0,0,0.41043795,-43.523765,224.04953)">
      <path
         inkscape:export-ydpi="90"
         inkscape:export-xdpi="90"
         inkscape:export-filename="/home/josedan/Documents/jd-website/src/logo.png"
         d="M 31.994958,172.22033 V 230.347 c -0.299597,38.7898 -26.646502,57.7584 -26.646502,57.7584 0,0 83.759594,-6.03907 84.773208,-57.7584 v -58.12667 z"
         id="path1583"
         inkscape:connector-curvature="0"
         style="isolation:isolate;fill:#005bd1;fill-opacity:1;stroke-width:1.1841321" />
      <path
         inkscape:export-ydpi="90"
         inkscape:export-xdpi="90"
         inkscape:export-filename="/home/josedan/Documents/jd-website/src/logo.png"
         d="m 30.337178,126.31508 c 0,-16.04143 13.023121,-29.063341 29.063316,-29.063341 16.040313,0 29.063392,13.021911 29.063392,29.063341 0,16.04025 -13.023079,29.06216 -29.063392,29.06216 -16.040195,0 -29.063316,-13.02191 -29.063316,-29.06216 z"
         id="path1585"
         inkscape:connector-curvature="0"
         style="isolation:isolate;fill:#005bd1;fill-opacity:1;stroke-width:1.1841321" />
      <path
         inkscape:export-ydpi="90"
         inkscape:export-xdpi="90"
         inkscape:export-filename="/home/josedan/Documents/jd-website/src/logo.png"
         d="m 154.34657,97.416334 0.25223,57.817616 c 0,0.0912 -0.0734,0.1646 -0.16459,0.16578 l -35.43987,0.15394 c -0.0911,0 -0.1658,-0.0734 -0.1658,-0.16459 l -0.25218,-57.81644 c 0,-0.09118 0.0734,-0.165775 0.16459,-0.165775 l 35.43987,-0.155126 c 0.0912,0 0.16575,0.07342 0.16575,0.164595 z"
         style="isolation:isolate;fill:#005bd1;fill-opacity:1;stroke:none;stroke-width:1.1841321;stroke-miterlimit:10"
         id="path1587"
         inkscape:connector-curvature="0" />
      <path
         inkscape:export-ydpi="90"
         inkscape:export-xdpi="90"
         inkscape:export-filename="/home/josedan/Documents/jd-website/src/logo.png"
         d="m 136.67224,172.28309 c -25.93845,0 -46.96506,21.07043 -46.96506,47.06213 0,25.9917 21.02661,47.06214 46.96506,47.06214 12.4559,0 24.40259,-4.95797 33.21017,-13.7833 8.80878,-8.82651 13.75723,-20.7969 13.75723,-33.27884 0,-12.48193 -4.94845,-24.4535 -13.75723,-33.27884 -8.80758,-8.82652 -20.75427,-13.78449 -33.21017,-13.78329 z m 0,29.17464 c 4.74482,0 9.2966,1.88514 12.65128,5.23978 3.35584,3.35346 5.2398,7.90408 5.2398,12.64771 0,9.87685 -8.01067,17.88395 -17.89108,17.88395 -9.8804,0 -17.89102,-8.0071 -17.89225,-17.88395 0,-4.74363 1.88514,-9.29425 5.24097,-12.64771 3.35469,-3.35464 7.90529,-5.23978 12.65128,-5.23978 z"
         id="path1589"
         inkscape:connector-curvature="0"
         style="isolation:isolate;fill:#005bd1;fill-opacity:1;stroke-width:1.1841321" />
    </g>
  </g>
</svg>
