<?xml version="1.0" encoding="UTF-8" standalone="no"?>
<!-- Created with Inkscape (http://www.inkscape.org/) -->

<svg
   xmlns:dc="http://purl.org/dc/elements/1.1/"
   xmlns:cc="http://creativecommons.org/ns#"
   xmlns:rdf="http://www.w3.org/1999/02/22-rdf-syntax-ns#"
   xmlns:svg="http://www.w3.org/2000/svg"
   xmlns="http://www.w3.org/2000/svg"
   xmlns:sodipodi="http://sodipodi.sourceforge.net/DTD/sodipodi-0.dtd"
   xmlns:inkscape="http://www.inkscape.org/namespaces/inkscape"
   width="15.990626mm"
   height="31.970934mm"
   viewBox="0 0 15.990626 31.970934"
   version="1.1"
   id="svg1159"
   inkscape:version="0.92.3 (2405546, 2018-03-11)"
   sodipodi:docname="openBracket.svg">
  <defs
     id="defs1153" />
  <sodipodi:namedview
     id="base"
     pagecolor="#ffffff"
     bordercolor="#666666"
     borderopacity="1.0"
     inkscape:pageopacity="0.0"
     inkscape:pageshadow="2"
     inkscape:zoom="0.35"
     inkscape:cx="-420.74764"
     inkscape:cy="-259.58249"
     inkscape:document-units="mm"
     inkscape:current-layer="layer1"
     showgrid="false"
     fit-margin-top="0"
     fit-margin-left="0"
     fit-margin-right="0"
     fit-margin-bottom="0"
     inkscape:window-width="1366"
     inkscape:window-height="732"
     inkscape:window-x="0"
     inkscape:window-y="0"
     inkscape:window-maximized="1" />
  <metadata
     id="metadata1156">
    <rdf:RDF>
      <cc:Work
         rdf:about="">
        <dc:format>image/svg+xml</dc:format>
        <dc:type
           rdf:resource="http://purl.org/dc/dcmitype/StillImage" />
        <dc:title></dc:title>
      </cc:Work>
    </rdf:RDF>
  </metadata>
  <g
     inkscape:label="Layer 1"
     inkscape:groupmode="layer"
     id="layer1"
     transform="translate(-75.79305,-48.181199)">
    <path
       style="isolation:isolate;fill:#006fff;stroke-width:0.26458332"
       inkscape:connector-curvature="0"
       id="path1003"
       d="m 83.825271,48.1812 h 7.921625 c 0.02037,0 0.03678,0.0164 0.03678,0.03678 v 7.918979 c 0,0.02037 -0.0164,0.03704 -0.03678,0.03704 h -7.921625 c -0.02037,0 -0.03678,-0.01667 -0.03678,-0.03704 V 48.21798 c 0,-0.02037 0.0164,-0.03678 0.03678,-0.03678 z m 0,23.978394 h 7.921625 c 0.02037,0 0.03678,0.0164 0.03678,0.03678 v 7.918979 c 0,0.02037 -0.0164,0.03678 -0.03678,0.03678 h -7.921625 c -0.02037,0 -0.03678,-0.0164 -0.03678,-0.03678 v -7.918979 c 0,-0.02037 0.0164,-0.03678 0.03678,-0.03678 z m -0.07329,-15.985596 h 0.03651 v 7.992798 7.992798 7.992533 H 75.79305 v -7.992533 -7.992798 -7.992798 h 0.03625 c -0.01984,0 -0.03625,-0.01693 -0.03625,-0.03704 v -7.918979 c 0,-0.02037 0.01667,-0.03678 0.03678,-0.03678 h 7.921625 c 0.02037,0 0.03704,0.0164 0.03704,0.03678 v 7.918979 c 0,0.02011 -0.0164,0.03651 -0.03651,0.03704 z" />
  </g>
</svg>
