<?xml version="1.0"?>
<svg xmlns="http://www.w3.org/2000/svg" xmlns:xlink="http://www.w3.org/1999/xlink" version="1.1" viewBox="0 0 192 192" width="50px" height="50px"><g fill="none" fill-rule="nonzero" stroke="none" stroke-width="1" stroke-linecap="butt" stroke-linejoin="miter" stroke-miterlimit="10" stroke-dasharray="" stroke-dashoffset="0" font-family="none" font-weight="none" font-size="none" text-anchor="none" style="mix-blend-mode: normal"><path d="M0,192v-192h192v192z" fill="none"/><g fill="#005bd1"><g id="surface1"><path d="M168.615,46.095l-64.665,-36.345c-4.905,-2.745 -10.995,-2.745 -15.9,0l-64.665,36.345c-4.95,2.775 -8.025,7.98 -8.025,13.56v72.69c0,5.58 3.075,10.785 8.025,13.56l64.665,36.345c2.46,1.38 5.205,2.07 7.95,2.07c2.745,0 5.49,-0.69 7.95,-2.07l64.665,-36.345c4.95,-2.775 8.025,-7.98 8.025,-13.56v-72.69c0,-5.58 -3.075,-10.785 -8.025,-13.56zM96,142.08c-25.41,0 -46.08,-20.67 -46.08,-46.08c0,-25.41 20.67,-46.08 46.08,-46.08c14.52,0 27.93,6.735 36.645,18.21l-16.83,9.735c-5.055,-5.535 -12.24,-8.745 -19.815,-8.745c-14.82,0 -26.88,12.06 -26.88,26.88c0,14.82 12.06,26.88 26.88,26.88c7.575,0 14.76,-3.21 19.815,-8.745l16.83,9.735c-8.715,11.475 -22.125,18.21 -36.645,18.21zM142.08,99.84h-7.68v7.68h-7.68v-7.68h-7.68v-7.68h7.68v-7.68h7.68v7.68h7.68zM168.96,99.84h-7.68v7.68h-7.68v-7.68h-7.68v-7.68h7.68v-7.68h7.68v7.68h7.68z"/></g></g></g></svg>
