<?xml version="1.0" standalone="no"?><!-- Generator: Gravit.io --><svg xmlns="http://www.w3.org/2000/svg" xmlns:xlink="http://www.w3.org/1999/xlink" style="isolation:isolate" viewBox="1472.132 874 81.649 79.489" width="81.649" height="79.489"><path d=" M 1512.957 874 C 1490.41 874 1472.132 892.253 1472.132 914.751 C 1472.132 932.759 1483.835 948.043 1500.052 953.441 C 1502.088 953.809 1503.536 951.724 1503.536 950.153 C 1503.536 949.197 1503.56 948.043 1503.536 944.658 C 1492.176 947.111 1488.619 939.162 1488.619 939.162 C 1486.754 934.452 1484.497 933.102 1484.497 933.102 C 1480.793 930.575 1484.767 930.649 1484.767 930.649 C 1488.864 930.919 1490.974 934.452 1490.974 934.452 C 1494.115 939.947 1501.205 939.407 1503.536 938.377 C 1503.536 935.875 1503.806 934.059 1504.492 932.906 C 1491.661 930.649 1484.669 923.24 1484.694 912.984 C 1484.718 906.925 1486.803 902.214 1490.189 898.73 C 1488.717 896.866 1487.711 890.487 1490.729 886.561 C 1498.31 886.561 1502.824 892.032 1502.824 892.032 C 1502.824 892.032 1506.382 890.487 1512.932 890.487 C 1519.507 890.487 1523.04 891.959 1523.04 891.959 C 1523.04 891.959 1527.579 886.561 1535.16 886.561 C 1538.178 890.487 1537.172 896.866 1535.994 898.608 C 1539.233 902.018 1541.22 906.728 1541.22 912.984 C 1541.22 923.24 1534.252 930.649 1521.445 932.881 C 1522.255 934.108 1522.378 935.826 1522.378 938.377 C 1522.378 943.824 1522.378 948.804 1522.378 950.153 C 1522.378 951.724 1523.801 953.833 1525.886 953.441 C 1542.103 948.019 1553.781 932.759 1553.781 914.751 C 1553.781 892.253 1535.503 874 1512.957 874 Z " fill="rgb(0,91,209)"/></svg>