<?xml version="1.0" standalone="no"?><!-- Generator: Gravit.io --><svg xmlns="http://www.w3.org/2000/svg" xmlns:xlink="http://www.w3.org/1999/xlink" style="isolation:isolate" viewBox="1325 874 79.326 79.489" width="79.326" height="79.489"><path d=" M 1345 874 L 1384.326 874 C 1395.364 874 1404.326 882.962 1404.326 894 L 1404.326 933.489 C 1404.326 944.527 1395.364 953.489 1384.326 953.489 L 1345 953.489 C 1333.962 953.489 1325 944.527 1325 933.489 L 1325 894 C 1325 882.962 1333.962 874 1345 874 M 1340.12 913.746 C 1340.12 900.199 1351.118 889.202 1364.664 889.202 C 1378.21 889.202 1389.208 900.199 1389.208 913.746 C 1389.208 927.292 1378.21 938.289 1364.664 938.289 C 1351.118 938.289 1340.12 927.292 1340.12 913.746 M 1349.555 913.746 C 1349.555 905.409 1356.325 898.641 1364.664 898.641 C 1373.003 898.641 1379.773 905.409 1379.773 913.746 C 1379.773 922.082 1373.003 928.85 1364.664 928.85 C 1356.325 928.85 1349.555 922.082 1349.555 913.746 M 1340.12 913.746 M 1345 874 Z  M 1386.001 887.776 C 1386.001 884.741 1388.466 882.276 1391.501 882.276 C 1394.537 882.276 1397.001 884.741 1397.001 887.776 C 1397.001 890.811 1394.537 893.276 1391.501 893.276 C 1388.466 893.276 1386.001 890.811 1386.001 887.776 Z " fill-rule="evenodd" fill="rgb(0,91,209)"/></svg>