<?xml version="1.0"?>
<svg xmlns="http://www.w3.org/2000/svg" xmlns:xlink="http://www.w3.org/1999/xlink" version="1.1" viewBox="0 0 192 192" width="50px" height="50px"><g fill="none" fill-rule="nonzero" stroke="none" stroke-width="1" stroke-linecap="butt" stroke-linejoin="miter" stroke-miterlimit="10" stroke-dasharray="" stroke-dashoffset="0" font-family="none" font-weight="none" font-size="none" text-anchor="none" style="mix-blend-mode: normal"><path d="M0,192v-192h192v192z" fill="none"/><g fill="#005bd1"><g id="surface1"><path d="M166.41,15.36h-140.805c-5.655,0 -10.245,4.59 -10.245,10.245v140.79c0,5.655 4.59,10.245 10.245,10.245h140.79c5.655,0 10.245,-4.59 10.245,-10.23v-140.805c0,-5.655 -4.59,-10.245 -10.23,-10.245zM103.68,138.945c0,15.345 -9,22.335 -22.14,22.335c-11.88,0 -20.445,-7.965 -23.94,-15.36l12.075,-7.305c2.325,4.125 5.865,7.305 10.965,7.305c4.875,0 7.68,-1.905 7.68,-9.315v-48.285h15.36zM136.995,161.28c-13.605,0 -21.33,-6.855 -25.635,-15.36l11.52,-7.68c3.135,5.13 6.555,10.035 13.785,10.035c6.075,0 9.255,-3.03 9.255,-7.23c0,-5.01 -3.3,-6.795 -9.975,-9.72l-3.66,-1.575c-10.575,-4.5 -17.61,-10.14 -17.61,-22.08c0,-10.98 8.385,-19.35 21.465,-19.35c9.315,0 16.005,3.24 20.835,11.73l-11.4,7.335c-2.52,-4.515 -5.22,-6.285 -9.435,-6.285c-4.29,0 -7.005,2.73 -7.005,6.285c0,4.395 2.715,6.165 9,8.895l3.66,1.575c12.465,5.325 19.485,10.77 19.485,23.01c0,13.185 -10.365,20.415 -24.285,20.415z"/></g></g></g></svg>
