<?xml version="1.0" encoding="UTF-8" standalone="no"?>
<!-- Created with Inkscape (http://www.inkscape.org/) -->

<svg
   xmlns:dc="http://purl.org/dc/elements/1.1/"
   xmlns:cc="http://creativecommons.org/ns#"
   xmlns:rdf="http://www.w3.org/1999/02/22-rdf-syntax-ns#"
   xmlns:svg="http://www.w3.org/2000/svg"
   xmlns="http://www.w3.org/2000/svg"
   xmlns:sodipodi="http://sodipodi.sourceforge.net/DTD/sodipodi-0.dtd"
   xmlns:inkscape="http://www.inkscape.org/namespaces/inkscape"
   width="137.34192mm"
   height="37.873695mm"
   viewBox="0 0 137.34192 37.873696"
   version="1.1"
   id="svg8"
   inkscape:version="0.92.3 (2405546, 2018-03-11)"
   sodipodi:docname="laravel+react.svg">
  <defs
     id="defs2" />
  <sodipodi:namedview
     id="base"
     pagecolor="#ffffff"
     bordercolor="#666666"
     borderopacity="1.0"
     inkscape:pageopacity="0.0"
     inkscape:pageshadow="2"
     inkscape:zoom="0.7"
     inkscape:cx="310.40512"
     inkscape:cy="175.86057"
     inkscape:document-units="mm"
     inkscape:current-layer="layer1"
     showgrid="false"
     fit-margin-top="0"
     fit-margin-left="0"
     fit-margin-right="0"
     fit-margin-bottom="0"
     inkscape:window-width="1366"
     inkscape:window-height="732"
     inkscape:window-x="0"
     inkscape:window-y="0"
     inkscape:window-maximized="1" />
  <metadata
     id="metadata5">
    <rdf:RDF>
      <cc:Work
         rdf:about="">
        <dc:format>image/svg+xml</dc:format>
        <dc:type
           rdf:resource="http://purl.org/dc/dcmitype/StillImage" />
        <dc:title></dc:title>
      </cc:Work>
    </rdf:RDF>
  </metadata>
  <g
     inkscape:label="Layer 1"
     inkscape:groupmode="layer"
     id="layer1"
     transform="translate(64.878797,-117.24089)">
    <g
       id="g892"
       style="font-family:none;mix-blend-mode:normal;fill:none;stroke:none;stroke-width:1;stroke-linecap:butt;stroke-linejoin:miter;stroke-miterlimit:10;stroke-dasharray:none;stroke-dashoffset:0"
       text-anchor="none"
       font-size="none"
       font-weight="none"
       stroke-miterlimit="10"
       fill-rule="none"
       transform="matrix(0.19725881,0,0,0.19725881,34.589431,117.24089)">
      <path
         id="path886"
         d="M 0,192 V 0 h 192 v 192 z"
         inkscape:connector-curvature="0"
         style="fill:none;fill-rule:nonzero" />
      <g
         id="g890"
         style="fill:#005bd1;fill-rule:evenodd">
        <path
           id="path888"
           d="m 132.69,15.3 c -2.99399,-0.10067 -6.12789,0.42132 -9.27,1.44 -6.28422,2.03737 -12.86946,6.00772 -19.6275,11.505 -2.64848,2.15439 -5.32099,4.61706 -8.0025,7.23 -2.62239,-2.5466 -5.23998,-4.94317 -7.83,-7.05 C 81.20739,22.93213 74.64,18.96026 68.37,16.9275 62.10001,14.89474 55.86133,14.83175 50.7375,17.79 c -5.12384,2.95825 -8.18792,8.38865 -9.5625,14.835 -1.37458,6.44635 -1.22316,14.12313 0.1575,22.7175 0.47957,2.98522 1.16352,6.117 1.9425,9.3075 -2.92775,0.88729 -5.77096,1.82023 -8.4075,2.85 -7.95685,3.10776 -14.54066,6.82575 -19.335,11.25 -4.79434,4.42426 -7.89,9.79389 -7.89,15.69 0,5.89611 3.09566,11.25825 7.89,15.6825 4.79434,4.42426 11.37815,8.14974 19.335,11.2575 2.81923,1.10112 5.87151,2.09261 9.0225,3.03 -1.1334,4.23491 -2.05169,8.34443 -2.6775,12.24 -1.38177,8.60127 -1.52768,16.27902 -0.15,22.74 1.3777,6.46098 4.44334,11.92213 9.5925,14.895 5.14917,2.97287 11.41577,2.89987 17.7,0.8625 6.28422,-2.03737 12.86196,-6.00022 19.62,-11.4975 2.62409,-2.13455 5.27847,-4.56953 7.935,-7.155 2.67047,2.60105 5.33546,5.04742 7.9725,7.1925 6.75261,5.49287 13.3275,9.45724 19.5975,11.49 6.26999,2.03276 12.50867,2.09575 17.6325,-0.8625 5.12383,-2.95825 8.18042,-8.38865 9.555,-14.835 1.37457,-6.44635 1.22315,-14.11563 -0.1575,-22.71 -0.62751,-3.90614 -1.54636,-8.02929 -2.685,-12.2775 3.25507,-0.96022 6.40378,-1.97837 9.3075,-3.1125 7.95685,-3.10776 14.54066,-6.83325 19.335,-11.2575 4.79434,-4.42425 7.89,-9.78639 7.89,-15.6825 0,-5.89611 -3.09567,-11.26574 -7.89,-15.69 -4.79434,-4.42425 -11.37815,-8.14224 -19.335,-11.25 -2.67438,-1.04455 -5.56122,-1.98963 -8.535,-2.8875 0.78531,-3.21005 1.48254,-6.36429 1.965,-9.3675 1.38177,-8.60127 1.52771,-16.28652 0.15,-22.7475 -1.37767,-6.46098 -4.45083,-11.91462 -9.6,-14.8875 -2.57459,-1.48643 -5.42851,-2.20933 -8.4225,-2.31 z m -0.3525,7.815 c 1.87877,0.05137 3.48151,0.49846 4.8525,1.29 2.74198,1.58308 4.76873,4.66415 5.85,9.735 1.08127,5.07084 1.0439,11.92207 -0.2325,19.8675 -0.43702,2.72035 -1.07156,5.60347 -1.7925,8.5575 -7.85474,-1.89033 -16.46174,-3.29306 -25.635,-4.1175 -4.60507,-6.37968 -9.33685,-12.1917 -14.1075,-17.3475 2.5234,-2.46322 5.03046,-4.76697 7.4775,-6.7575 6.24274,-5.07812 12.15289,-8.53349 17.085,-10.1325 2.46606,-0.79951 4.62373,-1.14637 6.5025,-1.095 z m -72.87,0.0225 c 1.88963,-0.05275 4.05183,0.29319 6.525,1.095 4.94634,1.60363 10.86684,5.05747 17.115,10.14 2.39792,1.95057 4.84884,4.21048 7.32,6.615 -4.80593,5.198 -9.57683,11.0604 -14.2125,17.4975 -9.13447,0.83944 -17.70643,2.24978 -25.5225,4.1475 -0.71557,-2.93764 -1.3502,-5.80593 -1.785,-8.5125 -1.27751,-7.95233 -1.30939,-14.80453 -0.225,-19.89 1.08439,-5.08547 3.1277,-8.1898 5.895,-9.7875 1.38365,-0.79885 3.00037,-1.25225 4.89,-1.305 z m 36.4425,23.49 c 3.1281,3.40413 6.25687,7.12927 9.36,11.1375 -3.04907,-0.12713 -6.13545,-0.2025 -9.27,-0.2025 -3.19697,0 -6.34211,0.07781 -9.45,0.21 3.10383,-4.01133 6.23112,-7.73831 9.36,-11.145 z m 0.09,18.69 c 5.22199,0 10.31174,0.21458 15.2625,0.5775 3.40654,4.89276 6.73551,10.08345 9.9075,15.5775 2.78713,4.82746 5.30934,9.64749 7.605,14.4075 -2.31989,4.82316 -4.88437,9.70837 -7.71,14.6025 -2.4873,4.30813 -5.08475,8.39987 -7.725,12.345 -5.59224,0.46741 -11.38684,0.7275 -17.34,0.7275 -6.09648,0 -12.02127,-0.27552 -17.7375,-0.765 -2.59629,-3.88841 -5.14992,-7.91816 -7.5975,-12.1575 -2.81917,-4.88294 -5.37127,-9.75924 -7.6875,-14.5725 2.32595,-4.84045 4.88951,-9.74379 7.725,-14.655 C 73.85786,75.93975 77.17712,70.77909 80.565,65.91 85.56906,65.53891 90.71789,65.3175 96,65.3175 Z m 25.1475,1.5375 c 6.33013,0.78983 12.27362,1.8864 17.805,3.2025 -1.64129,5.3804 -3.66295,11.00032 -6.1125,16.8 -1.59046,-3.06594 -3.2377,-6.1423 -5.0175,-9.225 -2.15688,-3.73582 -4.40333,-7.29746 -6.675,-10.7775 z M 70.44,66.915 c -2.22373,3.41497 -4.41183,6.90738 -6.525,10.5675 -1.80264,3.12226 -3.48407,6.24001 -5.0925,9.345 C 56.39409,81.06269 54.38459,75.47473 52.755,70.125 58.24513,68.80651 64.15398,67.71384 70.44,66.915 Z m 76.11,5.1825 c 2.72211,0.82363 5.35106,1.68314 7.7625,2.625 7.33499,2.86488 13.13704,6.25731 16.8975,9.7275 3.76046,3.47018 5.3925,6.77955 5.3925,9.99 0,3.21045 -1.63203,6.51982 -5.3925,9.99 -3.76047,3.47019 -9.56251,6.86263 -16.8975,9.7275 -2.67974,1.04664 -5.62401,1.99575 -8.685,2.895 -2.18354,-6.75371 -4.97057,-13.79962 -8.2875,-20.9925 3.81373,-8.25808 6.89458,-16.30977 9.21,-23.9625 z M 45.3225,72.135 c 2.2889,7.57637 5.33022,15.54801 9.09,23.7225 -3.3387,7.23481 -6.13953,14.32075 -8.3325,21.1125 -2.95311,-0.87559 -5.79759,-1.79899 -8.3925,-2.8125 -7.33499,-2.86488 -13.13704,-6.25731 -16.8975,-9.7275 -3.76046,-3.47018 -5.3925,-6.77955 -5.3925,-9.99 0,-3.21045 1.63204,-6.51981 5.3925,-9.99 3.76046,-3.47019 9.56251,-6.86263 16.8975,-9.7275 2.37435,-0.92736 4.95921,-1.77464 7.635,-2.5875 z M 96,76.8 c -10.55838,0 -19.2,8.64162 -19.2,19.2 0,10.55838 8.64162,19.2 19.2,19.2 10.55838,0 19.2,-8.64162 19.2,-19.2 0,-10.55838 -8.64162,-19.2 -19.2,-19.2 z m -37.0875,28.2825 c 1.61548,3.12046 3.29561,6.25171 5.1075,9.39 1.41762,2.4554 2.8654,4.84549 4.335,7.1925 -5.15698,-0.71509 -10.05907,-1.62044 -14.6625,-2.6925 1.46392,-4.48363 3.21532,-9.13776 5.22,-13.89 z m 74.025,0 c 2.01271,4.76349 3.765,9.42508 5.235,13.92 -4.61804,1.0708 -9.53522,1.97306 -14.7075,2.685 1.48887,-2.37571 2.95925,-4.79571 4.395,-7.2825 1.79857,-3.11521 3.47216,-6.22484 5.0775,-9.3225 z M 51.48,126.4275 c 6.94972,1.64636 14.48243,2.91104 22.47,3.735 5.3321,7.71216 10.887,14.64197 16.4775,20.7 -2.4999,2.43744 -4.97765,4.72502 -7.4025,6.6975 -6.24274,5.07812 -12.16039,8.52599 -17.0925,10.125 -4.93212,1.59901 -8.61303,1.38807 -11.355,-0.195 -2.74198,-1.58308 -4.76123,-4.66416 -5.8425,-9.735 -1.08127,-5.07084 -1.05139,-11.91457 0.225,-19.86 0.57905,-3.60447 1.44442,-7.46412 2.52,-11.4675 z m 88.9125,0.03 c 1.08457,4.0278 1.95251,7.9016 2.535,11.5275 1.27751,7.95233 1.30939,14.80452 0.225,19.89 -1.08439,5.08547 -3.1127,8.19729 -5.88,9.795 -2.7673,1.59771 -6.48366,1.80614 -11.43,0.2025 -4.94634,-1.60363 -10.86684,-5.05747 -17.115,-10.14 -2.44229,-1.98667 -4.93719,-4.29279 -7.455,-6.75 5.62797,-6.08167 11.22209,-13.04679 16.59,-20.805 8.00771,-0.81846 15.56134,-2.07558 22.53,-3.72 z M 83.97,130.95 c 3.94277,0.21487 7.9375,0.36 12.03,0.36 3.95714,0 7.82232,-0.13642 11.64,-0.3375 -3.90255,5.2653 -7.88051,10.05207 -11.8425,14.3625 -3.95958,-4.31964 -7.93007,-9.11496 -11.8275,-14.385 z"
           inkscape:connector-curvature="0" />
      </g>
    </g>
    <g
       style="fill:#000000"
       id="g978"
       transform="matrix(0.19725881,0,0,0.19725881,-64.87839,117.24089)">
      <g
         id="g964"
         style="font-family:none;mix-blend-mode:normal;fill:none;fill-rule:nonzero;stroke:none;stroke-width:1;stroke-linecap:butt;stroke-linejoin:miter;stroke-miterlimit:10;stroke-dasharray:none;stroke-dashoffset:0"
         text-anchor="none"
         font-size="none"
         font-weight="none"
         stroke-miterlimit="10">
        <path
           id="path958"
           d="M 0,192 V 0 h 192 v 192 z"
           inkscape:connector-curvature="0"
           style="fill:none" />
        <g
           id="g962"
           style="fill:#005bd1">
          <path
             id="path960"
             d="m 45.8775,30.72 c -0.16345,0.0071 -0.32629,0.02463 -0.4875,0.0525 L 3.15,38.46 c -1.20101,0.2188 -2.22645,0.99558 -2.76231,2.09246 -0.53586,1.09688 -0.5183,2.38319 0.04731,3.46504 l 46.08,88.32 c 0.83965,1.60541 2.68708,2.40565 4.4325,1.92 l 41.4675,-11.52 23.295,40.455 c 0.93436,1.62611 2.90656,2.33953 4.665,1.6875 l 65.3025,-24.135 c 1.10767,-0.40953 1.96532,-1.30592 2.32557,-2.43058 0.36024,-1.12466 0.18301,-2.35253 -0.48057,-3.32942 L 165.465,102.45 189.1875,95.8575 c 1.19714,-0.33152 2.15999,-1.22159 2.58438,-2.38904 0.42439,-1.16745 0.2579,-2.46806 -0.44688,-3.49096 L 170.2125,59.355 c -0.91986,-1.33126 -2.57548,-1.94312 -4.14,-1.53 l -28.8075,7.5825 c -1.20411,0.3166 -2.18002,1.19728 -2.61816,2.36267 -0.43814,1.1654 -0.28414,2.47088 0.41316,3.50233 l 18.06,26.64 L 96.105,113.745 49.4025,32.64 c -0.72042,-1.25199 -2.08242,-1.99385 -3.525,-1.92 z M 44.1,38.8125 88.4625,115.8675 51.885,126.03 9.66,45.0825 Z m 121.32,27.12 16.515,23.97 -21.0075,5.8425 -16.47,-24.2925 z m -7.7625,38.685 20.76,30.6225 -57.6675,21.315 -20.6925,-35.94 z"
             inkscape:connector-curvature="0" />
        </g>
      </g>
    </g>
    <text
       xml:space="preserve"
       style="font-style:normal;font-weight:normal;font-size:30.29895401px;line-height:1.25;font-family:sans-serif;letter-spacing:0px;word-spacing:0px;fill:#005bd1;fill-opacity:1;stroke:none;stroke-width:0.75747383"
       x="-4.8427896"
       y="146.87326"
       id="text982"><tspan
         sodipodi:role="line"
         id="tspan980"
         x="-4.8427896"
         y="146.87326"
         style="fill:#005bd1;fill-opacity:1;stroke-width:0.75747383">+</tspan></text>
  </g>
</svg>
