<?xml version="1.0"?>
<svg xmlns="http://www.w3.org/2000/svg" xmlns:xlink="http://www.w3.org/1999/xlink" version="1.1" viewBox="0 0 192 192" width="64px" height="64px"><g fill="none" fill-rule="nonzero" stroke="none" stroke-width="1" stroke-linecap="butt" stroke-linejoin="miter" stroke-miterlimit="10" stroke-dasharray="" stroke-dashoffset="0" font-family="none" font-weight="none" font-size="none" text-anchor="none" style="mix-blend-mode: normal"><path d="M0,192v-192h192v192z" fill="none"/><g id="Layer_1" fill="#005bd1"><path d="M84,177c-1.212,0 -2.328,-0.738 -2.787,-1.896c-5.97,-15.063 -17.082,-43.104 -25.338,-43.104c-3.858,0 -7.674,2.472 -7.71,2.496c-1.038,0.696 -2.403,0.672 -3.417,-0.063l-37.5,-27c-0.882,-0.636 -1.353,-1.704 -1.227,-2.787c0.126,-1.083 0.831,-2.01 1.839,-2.424l49.398,-20.274c2.205,-3.255 10.764,-15.183 20.04,-18.75c1.401,-0.54 2.571,-0.978 3.567,-1.35c5.019,-1.881 5.019,-1.881 8.859,-5.49l0.849,-0.798c5.217,-4.89 15.171,-20.259 18.249,-25.257c0.354,-0.579 0.732,-1.215 1.131,-1.887c3.351,-5.664 7.938,-13.416 14.922,-13.416c8.01,0 12.264,8.253 16.998,19.047c4.35,9.921 15.969,42.774 20.721,56.871c11.43,33.921 22.983,57.525 23.1,57.759c0.585,1.191 0.318,2.628 -0.66,3.531c-0.975,0.903 -2.427,1.056 -3.573,0.369c-0.243,-0.144 -6.054,-3.666 -15.582,-13.206c-7.068,-7.074 -12.828,-10.371 -18.129,-10.371c-9.327,0 -15.915,7.416 -24.258,16.809l-0.498,0.561c-0.99,1.113 -2.079,2.391 -3.267,3.78c-8.28,9.693 -20.79,24.345 -35.22,26.811c-0.171,0.027 -0.342,0.039 -0.507,0.039zM55.875,126c11.079,0 19.842,19.116 29.964,44.505c11.418,-3.285 22.101,-15.795 29.325,-24.252c1.215,-1.422 2.334,-2.733 3.345,-3.87l0.498,-0.561c8.973,-10.101 16.722,-18.822 28.743,-18.822c9.09,0 16.731,6.483 22.374,12.129c1.791,1.794 3.441,3.36 4.938,4.719c-4.518,-10.302 -11.367,-26.877 -18.153,-47.016c-4.905,-14.556 -16.425,-47.016 -20.529,-56.379c-4.398,-10.02 -7.533,-15.453 -11.505,-15.453c-3.564,0 -7.443,6.555 -9.762,10.473c-0.417,0.705 -0.813,1.371 -1.185,1.974c-0.123,0.201 -12.357,20.028 -19.251,26.493l-0.843,0.792c-4.581,4.308 -4.884,4.497 -10.86,6.735c-0.981,0.369 -2.136,0.801 -3.522,1.335c-7.245,2.787 -15.216,13.356 -17.676,17.193c-0.333,0.519 -0.816,0.924 -1.386,1.158l-45.252,18.57l31.557,22.719c2.028,-1.032 5.475,-2.442 9.18,-2.442z"/><path d="M47.778,134.715l-2.559,-5.427c0.186,-0.087 18.576,-8.985 32.886,-31.164c13.593,-21.069 20.307,-37.521 23.913,-46.359c0.918,-2.25 1.62,-3.96 2.157,-5.07c1.32,-2.733 2.595,-6.021 3.945,-9.504c4.23,-10.911 8.607,-22.191 16.755,-22.191v6c-4.041,0 -8.157,10.611 -11.16,18.36c-1.395,3.597 -2.715,6.996 -4.137,9.945c-0.501,1.035 -1.146,2.631 -2.004,4.731c-3.681,9.018 -10.53,25.803 -24.426,47.343c-15.291,23.697 -34.557,32.952 -35.37,33.336z"/><path d="M78.45,102.525l-21,-15.75l3.6,-4.8l21,15.75z"/><path d="M114.519,137.838c9.357,-10.533 18.204,-20.49 32.481,-20.829c0,0 -10.125,-44.634 -18.75,-81.384c-1.752,-7.467 -2.451,-8.625 -3.18,-8.625c-0.495,0 -1.083,1.095 -1.548,3.618c-2.493,13.473 -14.277,63.648 -23.772,87.882c-3.627,9.258 -10.113,14.703 -15.75,17.25c-2.58,1.167 -6.3,2.25 -6.3,2.25c3.903,6.837 7.611,15.24 11.427,24.606c8.058,-4.539 15.939,-13.77 21.474,-20.25c1.242,-1.455 2.388,-2.793 3.426,-3.963z"/></g></g></svg>
