<?xml version="1.0"?>
<svg xmlns="http://www.w3.org/2000/svg" xmlns:xlink="http://www.w3.org/1999/xlink" version="1.1" viewBox="0 0 192 192" width="50px" height="50px"><g fill="none" fill-rule="nonzero" stroke="none" stroke-width="1" stroke-linecap="butt" stroke-linejoin="miter" stroke-miterlimit="10" stroke-dasharray="" stroke-dashoffset="0" font-family="none" font-weight="none" font-size="none" text-anchor="none" style="mix-blend-mode: normal"><path d="M0,192v-192h192v192z" fill="none"/><g fill="#005bd1"><g id="surface1"><path d="M135.165,8.07c-5.76,0 -10.755,1.14 -15.36,2.295c8.07,3.45 13.065,7.68 15.75,9.6c6.15,5.37 9.6,10.755 15.75,19.59c1.14,1.92 3.06,4.605 4.215,8.82c1.155,3.84 1.155,6.915 1.155,9.99c0,4.23 -0.39,7.68 -0.78,11.13c-0.375,2.7 -0.375,3.855 -0.75,4.62c0,0.39 0,0.765 -0.39,1.53c0,1.92 0,2.7 0.39,4.23c0,1.53 0.375,3.075 0.375,5.76c0.39,4.995 0.39,8.445 -0.375,12.66v1.545c-0.78,3.45 -1.545,6.915 -3.465,9.975c0.39,0.78 0.765,1.155 1.155,1.92c1.92,-2.685 3.45,-5.37 4.98,-8.43c4.62,-8.46 7.305,-15.75 9.225,-21.12c3.45,-9.99 5.37,-17.295 6.525,-22.665c2.685,-11.52 3.075,-16.89 1.92,-23.04c0,-1.92 -0.765,-5.385 -2.685,-8.835c-4.23,-7.68 -10.755,-11.13 -15.36,-13.44c-3.075,-1.53 -11.145,-5.76 -22.275,-6.135zM51.975,9.765c-4.425,-0.09 -9.825,0.405 -15.885,3.285c-1.92,0.78 -7.68,3.465 -12.285,9.6c-3.075,3.84 -5.37,9.6 -6.525,16.125c-1.155,5.76 -1.545,12.69 0.765,25.74c1.53,9.21 3.075,15.36 6.15,28.02c0.39,1.545 2.685,8.46 7.68,23.82l0.375,0.765c0.78,2.685 3.075,8.445 8.07,14.205c3.45,3.84 6.525,6.15 9.225,6.15h0.75c4.995,0 8.46,-3.84 11.52,-6.915c0,-0.39 7.305,-9.21 9.99,-12.285c-0.39,-0.39 -1.14,-0.39 -1.53,-0.78c-4.605,-2.685 -8.07,-6.9 -10.755,-11.52c-4.605,-8.445 -4.23,-16.89 -3.465,-21.12l0.39,-6.51c-1.53,-10.38 -1.14,-20.355 0.78,-30.345c1.53,-8.445 3.45,-16.89 10.35,-25.725c2.31,-3.075 4.995,-5.76 7.68,-7.68c-6.135,-2.685 -12.66,-4.23 -19.2,-4.605c-1.245,-0.105 -2.61,-0.195 -4.08,-0.225zM100.215,13.05c-1.92,0 -3.84,0 -5.76,0.39c-7.68,1.53 -14.97,5.76 -20.73,13.05c-5.76,7.305 -7.29,14.205 -8.82,22.275c-0.78,3.075 -0.78,5.76 -1.17,8.835c2.31,-1.92 5.385,-4.23 9.99,-5.385c2.685,-0.765 9.6,-3.06 15.36,0.39c1.92,1.155 4.605,3.465 7.29,9.99c5.76,16.125 0.015,32.64 -0.75,34.17c-0.39,1.53 -1.155,2.685 -1.545,3.45c-0.765,1.92 -1.53,3.465 -2.295,6.54c-0.39,2.685 -0.78,4.995 -0.78,7.68c1.155,0 2.31,0.375 3.45,1.14c1.92,1.92 2.31,4.62 2.7,5.76c0.765,6.15 0.765,13.83 0.765,21.51c0,6.15 0,11.91 0.375,15.75c0.78,8.835 3.465,14.97 7.305,18.045c2.685,2.31 6.135,2.295 8.055,2.685h0.78c5.76,0 14.97,-3.84 18.42,-9.21c1.92,-3.075 2.7,-5.76 3.465,-9.6c0.39,-2.31 0.375,-3.45 0.765,-5.76c0,-1.155 0.39,-3.075 0.39,-5.37c0,-1.92 0.375,-4.23 0.765,-6.93c0.39,-6.525 1.53,-14.19 1.92,-18.42c0.39,-4.995 2.685,-9.225 4.605,-11.91c-2.685,-0.39 -5.37,-2.685 -6.9,-6.525c-2.31,-4.23 -2.7,-5.385 -3.09,-7.305c-0.375,-1.53 -1.14,-3.45 -3.84,-9.21c-5.76,-13.05 -6.51,-16.89 -6.51,-19.965c-0.39,-4.23 -0.78,-9.975 3.84,-13.815c6.9,-6.15 15.735,-5.76 20.34,-4.23v-0.78c-0.765,-3.06 -2.295,-5.37 -3.45,-6.9c-5.76,-8.835 -8.835,-13.44 -14.22,-18.045c-2.295,-1.92 -8.055,-6.54 -16.5,-9.6c-3.84,-1.155 -8.46,-2.7 -14.22,-2.7zM142.665,58.08c-2.79,-0.195 -6.345,0.285 -9.42,2.985c-1.53,1.53 -1.53,4.605 -1.14,7.29c0,1.92 0.375,4.605 6.135,17.67c2.685,6.135 3.45,8.055 3.84,9.6c0.39,1.53 0.765,2.295 3.075,6.51c0.39,0.78 0.765,1.545 1.53,2.31c0.765,-1.155 1.155,-3.075 1.53,-6.15l0.39,-1.14c0.765,-3.45 0.39,-6.15 0.39,-10.755c0,-2.31 -0.39,-3.84 -0.39,-4.995c-0.39,-1.92 -0.39,-3.45 -0.39,-5.76c-0.765,-1.155 -0.765,-1.53 -0.375,-2.31c0,-0.765 0.375,-1.905 0.765,-4.215c0.39,-3.075 0.78,-5.76 0.78,-8.835c-0.78,-0.39 -1.155,-0.765 -1.92,-1.14c0,0 -2.025,-0.87 -4.8,-1.065zM82.62,59.595c-2.445,-0.285 -5.25,0.51 -6.975,1.08c-4.23,1.155 -6.9,3.84 -8.82,5.37c-1.155,1.155 -2.31,2.31 -3.465,3.84c0,2.685 0.375,5.385 0.765,8.07v0.39l-0.765,7.68c-0.765,3.45 -1.155,9.975 2.685,16.5c1.92,3.84 4.62,6.915 8.07,8.835c2.31,1.53 5.37,2.685 8.82,3.465c0,-2.7 0.39,-5.775 0.78,-8.46c0.765,-3.84 1.53,-5.76 2.685,-8.07c0.39,-1.14 0.765,-1.905 1.545,-3.06c0.375,-1.155 5.745,-15.75 0.75,-29.19c-1.14,-3.075 -2.295,-4.995 -3.84,-5.76c-0.66,-0.39 -1.44,-0.6 -2.235,-0.69zM138.96,61.785c1.005,-0.06 1.965,0.03 2.355,0.42c1.155,0.765 -0.39,2.685 -0.78,3.075c-0.375,0.39 -1.14,1.155 -2.295,1.545c-1.53,0.375 -2.685,-0.78 -3.075,-0.78c-0.39,-0.39 -1.53,-1.53 -1.14,-2.685c0.375,-0.765 0.765,-0.765 2.295,-1.155c0.57,-0.195 1.635,-0.375 2.64,-0.42zM81.24,64.965c1.29,-0.09 2.37,0.405 3.24,0.69c1.155,0.39 2.295,0.78 2.295,1.545c0.39,1.155 -0.75,1.92 -1.14,2.295c-1.155,1.155 -3.075,1.17 -3.075,1.17c-1.92,0 -3.075,-1.155 -3.84,-2.31c-0.39,-0.39 -0.765,-1.155 -0.375,-1.92c0.375,-0.765 1.14,-1.155 1.53,-1.155c0.48,-0.195 0.93,-0.285 1.365,-0.315zM151.68,115.2c-1.92,2.685 -4.605,6.15 -4.995,10.755c0,0.765 0,1.155 -0.39,1.92c3.075,0.765 5.775,0.765 8.46,0.39c6.15,-0.78 10.365,-3.855 11.13,-4.62c2.685,-1.92 6.15,-5.76 5.37,-7.29c-0.375,-0.765 -1.53,-0.39 -7.68,0c-1.53,0 -6.135,1.155 -9.21,0.39h-0.765c-0.765,-0.39 -1.53,-0.78 -1.92,-1.545zM84.855,122.88c-0.765,1.155 -1.905,1.92 -2.67,2.685c-3.075,1.92 -6.93,3.465 -10.77,4.23c-3.45,1.155 -5.37,1.155 -5.37,2.31c-0.39,1.53 3.45,3.45 5.37,4.215c6.54,2.685 13.065,1.155 14.22,0.765c0.765,-0.39 2.685,-1.155 4.605,-2.31c0,-4.215 -0.375,-8.055 -0.765,-11.13v-0.39h-0.39c-1.155,0 -2.685,0.015 -4.23,-0.375z"/></g></g></g></svg>
