<?xml version="1.0"?>
<svg xmlns="http://www.w3.org/2000/svg" xmlns:xlink="http://www.w3.org/1999/xlink" version="1.1" viewBox="0 0 192 192" width="50px" height="50px"><g fill="none" fill-rule="nonzero" stroke="none" stroke-width="1" stroke-linecap="butt" stroke-linejoin="miter" stroke-miterlimit="10" stroke-dasharray="" stroke-dashoffset="0" font-family="none" font-weight="none" font-size="none" text-anchor="none" style="mix-blend-mode: normal"><path d="M0,192v-192h192v192z" fill="none"/><g fill="#005bd1"><g id="surface1"><path d="M94.08,7.68c-33.405,0 -40.32,17.25 -40.32,27.24v18.84h38.4v3.84h-57.24c-12.675,0 -27.24,9.99 -27.24,38.4c0,28.41 14.565,38.4 27.24,38.4h22.68v-23.04c0,-8.445 6.915,-15.36 15.36,-15.36h46.08c6.525,0 11.52,-4.995 11.52,-11.52v-49.56c0,-13.44 -12.675,-27.24 -36.48,-27.24zM76.8,26.88c4.23,0 7.68,3.45 7.68,7.68c0,4.23 -3.45,7.68 -7.68,7.68c-4.23,0 -7.68,-3.45 -7.68,-7.68c0,-4.23 3.45,-7.68 7.68,-7.68zM134.4,57.6v26.88c0,8.445 -6.915,15.36 -15.36,15.36h-46.08c-6.525,0 -11.52,4.995 -11.52,11.52v45.72c0,13.44 12.675,27.24 36.48,27.24c33.405,0 40.32,-17.25 40.32,-27.24v-18.84h-38.4v-3.84h57.24c12.675,0 27.24,-9.99 27.24,-38.4c0,-28.41 -14.565,-38.4 -27.24,-38.4zM115.2,149.76c4.23,0 7.68,3.45 7.68,7.68c0,4.23 -3.45,7.68 -7.68,7.68c-4.23,0 -7.68,-3.45 -7.68,-7.68c0,-4.23 3.45,-7.68 7.68,-7.68z"/></g></g></g></svg>
