<?xml version="1.0" standalone="no"?><!-- Generator: Gravit.io --><svg xmlns="http://www.w3.org/2000/svg" xmlns:xlink="http://www.w3.org/1999/xlink" style="isolation:isolate" viewBox="1772.568 876.662 94.813 76.826" width="94.813" height="76.826"><path d=" M 1867.381 885.748 C 1863.894 887.301 1860.149 888.335 1856.199 888.822 C 1860.211 886.421 1863.307 882.592 1864.758 878.07 C 1860.993 880.295 1856.827 881.919 1852.403 882.778 C 1848.865 879.001 1843.814 876.662 1838.218 876.662 C 1827.479 876.662 1818.766 885.345 1818.766 896.055 C 1818.766 897.566 1818.941 899.046 1819.27 900.474 C 1803.109 899.667 1788.77 891.937 1779.183 880.202 C 1777.496 883.068 1776.549 886.421 1776.549 889.97 C 1776.549 896.697 1779.975 902.626 1785.2 906.114 C 1782.011 906.021 1779.008 905.12 1776.385 903.692 C 1776.385 903.754 1776.385 903.837 1776.385 903.92 C 1776.385 913.327 1783.092 921.16 1791.979 922.951 C 1790.354 923.396 1788.636 923.644 1786.867 923.644 C 1785.612 923.644 1784.388 923.499 1783.205 923.282 C 1785.673 930.971 1792.854 936.59 1801.371 936.755 C 1794.705 941.95 1786.322 945.065 1777.208 945.065 C 1775.634 945.065 1774.091 944.972 1772.568 944.786 C 1781.188 950.27 1791.413 953.489 1802.389 953.489 C 1838.167 953.489 1857.742 923.934 1857.742 898.29 C 1857.742 897.452 1857.711 896.614 1857.67 895.797 C 1861.487 893.075 1864.778 889.66 1867.381 885.748 Z " fill="rgb(0,91,209)"/></svg>